<?xml version="1.0" encoding="utf-8" standalone="no"?>
<!DOCTYPE svg PUBLIC "-//W3C//DTD SVG 1.1//EN"
  "http://www.w3.org/Graphics/SVG/1.1/DTD/svg11.dtd">
<svg xmlns:xlink="http://www.w3.org/1999/xlink" width="349.2pt" height="236.16pt" viewBox="0 0 349.2 236.16" xmlns="http://www.w3.org/2000/svg" version="1.1">
 <metadata>
  <rdf:RDF xmlns:dc="http://purl.org/dc/elements/1.1/" xmlns:cc="http://creativecommons.org/ns#" xmlns:rdf="http://www.w3.org/1999/02/22-rdf-syntax-ns#">
   <cc:Work>
    <dc:type rdf:resource="http://purl.org/dc/dcmitype/StillImage"/>
    <dc:date>2026-07-14T19:04:44.462370</dc:date>
    <dc:format>image/svg+xml</dc:format>
    <dc:creator>
     <cc:Agent>
      <dc:title>Matplotlib v3.10.8, https://matplotlib.org/</dc:title>
     </cc:Agent>
    </dc:creator>
   </cc:Work>
  </rdf:RDF>
 </metadata>
 <defs>
  <style type="text/css">*{stroke-linejoin: round; stroke-linecap: butt}</style>
 </defs>
 <g id="figure_1">
  <g id="patch_1">
   <path d="M 0 236.16 
L 349.2 236.16 
L 349.2 0 
L 0 0 
L 0 236.16 
z
" style="fill: none"/>
  </g>
  <g id="axes_1">
   <g id="line2d_1">
    <path d="M 7.2 48.78 
L 342 48.78 
" clip-path="url(#pe04831f608)" style="fill: none; stroke: #000000; stroke-width: 1.5; stroke-linecap: square"/>
   </g>
   <g id="line2d_2">
    <path d="M 174.6 206.784 
L 174.6 29.376 
" clip-path="url(#pe04831f608)" style="fill: none; stroke: #000000; stroke-width: 1.5; stroke-linecap: square"/>
   </g>
   <g id="line2d_3">
    <path d="M -1 53.230385 
L 4.767836 54.337375 
L 10.638577 55.69474 
L 15.670641 57.068327 
L 20.702705 58.658823 
L 25.73477 60.488218 
L 30.766834 62.57824 
L 35.798898 64.949773 
L 39.992285 67.155133 
L 44.185671 69.579543 
L 48.379058 72.231672 
L 52.572445 75.118472 
L 56.765832 78.24484 
L 60.959218 81.613283 
L 65.991283 85.97446 
L 71.023347 90.677635 
L 76.055411 95.70973 
L 81.087475 101.050167 
L 86.958216 107.631935 
L 93.667635 115.543313 
L 101.215731 124.803901 
L 123.021343 151.799501 
L 128.892084 158.574486 
L 133.924148 164.027878 
L 138.117535 168.262145 
L 142.310922 172.167117 
L 145.665631 175.025792 
L 149.020341 177.626881 
L 152.37505 179.951902 
L 155.72976 181.984112 
L 159.084469 183.708705 
L 162.439178 185.112998 
L 164.95521 185.949667 
L 167.471242 186.596751 
L 169.987275 187.051525 
L 172.503307 187.312069 
L 175.019339 187.377282 
L 177.535371 187.246887 
L 180.051403 186.921437 
L 182.567435 186.402306 
L 185.083467 185.691685 
L 187.599499 184.792562 
L 190.115531 183.708705 
L 193.47024 181.984112 
L 196.82495 179.951902 
L 200.179659 177.626881 
L 203.534369 175.025792 
L 206.889078 172.167117 
L 211.082465 168.262145 
L 215.275852 164.027878 
L 220.307916 158.574486 
L 225.33998 152.790077 
L 232.049399 144.702379 
L 242.113527 132.150238 
L 253.85501 117.574047 
L 260.564429 109.574433 
L 266.43517 102.894143 
L 271.467234 97.456856 
L 276.499299 92.319311 
L 281.531363 87.504683 
L 286.563427 83.028494 
L 291.595491 78.899127 
L 295.788878 75.724464 
L 299.982265 72.79007 
L 304.175651 70.091502 
L 308.369038 67.622191 
L 312.562425 65.373786 
L 317.594489 62.953401 
L 322.626553 60.817878 
L 327.658617 58.946539 
L 332.690681 57.317753 
L 337.722745 55.909537 
L 343.593487 54.516303 
L 349.464228 53.359989 
L 350.2 53.230385 
L 350.2 53.230385 
" clip-path="url(#pe04831f608)" style="fill: none; stroke: #1f77b4; stroke-width: 2.5; stroke-linecap: square"/>
   </g>
   <g id="line2d_4">
    <path d="M -1 48.78 
L 107.086473 48.879268 
L 111.27986 49.104226 
L 113.795892 49.405195 
L 116.311924 49.93809 
L 117.989279 50.488194 
L 119.666633 51.255029 
L 121.343988 52.302667 
L 123.021343 53.705056 
L 124.698697 55.54393 
L 126.376052 57.905054 
L 128.053407 60.872615 
L 129.730762 64.521772 
L 131.408116 68.909632 
L 133.085471 74.065247 
L 134.762826 79.979544 
L 136.44018 86.596362 
L 138.956212 97.58334 
L 145.665631 127.973381 
L 147.342986 134.27485 
L 149.020341 139.458051 
L 149.859018 141.550589 
L 150.697695 143.275423 
L 151.536373 144.612115 
L 152.37505 145.545512 
L 153.213727 146.066156 
L 154.052405 146.17059 
L 154.891082 145.861529 
L 155.72976 145.147919 
L 156.568437 144.044857 
L 157.407114 142.573387 
L 158.245792 140.76018 
L 159.923146 136.240662 
L 161.600501 130.793322 
L 164.95521 118.585478 
L 167.471242 109.818732 
L 169.148597 104.853387 
L 170.825952 100.953403 
L 171.664629 99.479585 
L 172.503307 98.354462 
L 173.341984 97.594903 
L 174.180661 97.212266 
L 175.019339 97.212266 
L 175.858016 97.594903 
L 176.696693 98.354462 
L 177.535371 99.479585 
L 178.374048 100.953403 
L 179.212725 102.75374 
L 180.89008 107.220445 
L 182.567435 112.608266 
L 185.083467 121.679394 
L 187.599499 130.793322 
L 189.276854 136.240662 
L 190.954208 140.76018 
L 191.792886 142.573387 
L 192.631563 144.044857 
L 193.47024 145.147919 
L 194.308918 145.861529 
L 195.147595 146.17059 
L 195.986273 146.066156 
L 196.82495 145.545512 
L 197.663627 144.612115 
L 198.502305 143.275423 
L 199.340982 141.550589 
L 200.179659 139.458051 
L 201.857014 134.27485 
L 203.534369 127.973381 
L 206.050401 117.06866 
L 212.75982 86.596362 
L 214.437174 79.979544 
L 216.114529 74.065247 
L 217.791884 68.909632 
L 219.469238 64.521772 
L 221.146593 60.872615 
L 222.823948 57.905054 
L 224.501303 55.54393 
L 226.178657 53.705056 
L 227.856012 52.302667 
L 229.533367 51.255029 
L 231.210721 50.488194 
L 232.888076 49.93809 
L 235.404108 49.405195 
L 237.92014 49.104226 
L 242.113527 48.879268 
L 249.661623 48.788901 
L 294.111523 48.78 
L 350.2 48.78 
L 350.2 48.78 
" clip-path="url(#pe04831f608)" style="fill: none; stroke: #d62728; stroke-width: 2.5; stroke-linecap: square"/>
   </g>
  </g>
 </g>
 <defs>
  <clipPath id="pe04831f608">
   <rect x="7.2" y="7.2" width="334.8" height="221.76"/>
  </clipPath>
 </defs>
</svg>
