<?xml version="1.0" encoding="UTF-8"?>
<svg xmlns="http://www.w3.org/2000/svg" xmlns:xlink="http://www.w3.org/1999/xlink" width="287.612pt" height="197.544pt" viewBox="0 0 287.612 197.544">
<defs>
<g>
<g id="glyph-0-0">
<path d="M 1.875 -5.609375 C 1.890625 -5.609375 1.921875 -5.609375 1.921875 -5.609375 C 2 -5.609375 2.03125 -5.53125 2.03125 -5.234375 L 2.03125 -0.828125 C 2.03125 -0.546875 1.84375 -0.390625 1.453125 -0.375 L 0.75 -0.34375 L 0.75 0.03125 C 1.34375 0.015625 1.953125 0.015625 2.140625 0.015625 C 2.4375 0 2.640625 0 2.765625 0 C 2.875 0 3.125 0 3.453125 0.015625 C 3.578125 0.015625 4.03125 0.015625 4.515625 0.03125 L 4.515625 -0.34375 L 3.90625 -0.375 C 3.53125 -0.390625 3.34375 -0.53125 3.34375 -0.828125 L 3.34375 -4.03125 C 3.34375 -4.8125 3.359375 -5.453125 3.4375 -6.5625 L 3.3125 -6.65625 C 2.109375 -6.1875 0.96875 -5.796875 0.34375 -5.65625 C 0.34375 -5.40625 0.390625 -5.21875 0.484375 -4.953125 Z M 1.875 -5.609375 "/>
</g>
<g id="glyph-0-1">
<path d="M 1.25 -1.4375 C 0.828125 -1.4375 0.46875 -1.0625 0.46875 -0.640625 C 0.46875 -0.234375 0.828125 0.125 1.234375 0.125 C 1.65625 0.125 2.015625 -0.234375 2.015625 -0.640625 C 2.015625 -1.046875 1.65625 -1.4375 1.25 -1.4375 Z M 1.25 -1.4375 "/>
</g>
<g id="glyph-0-2">
<path d="M 0.71875 -2 C 0.71875 -1.265625 0.671875 -0.859375 0.5625 -0.28125 C 1.296875 0.046875 1.890625 0.171875 2.640625 0.171875 C 4.40625 0.171875 5.5625 -0.75 5.5625 -2.1875 C 5.5625 -3.078125 5.03125 -3.671875 4.046875 -3.9375 L 2.921875 -4.234375 C 2.1875 -4.421875 1.875 -4.734375 1.875 -5.234375 C 1.875 -5.921875 2.421875 -6.40625 3.203125 -6.40625 C 3.734375 -6.40625 4.171875 -6.21875 4.546875 -5.859375 L 4.609375 -5.03125 L 5.015625 -5.03125 C 5.015625 -5.6875 5.0625 -6.15625 5.15625 -6.453125 L 5.109375 -6.5625 C 4.4375 -6.8125 3.921875 -6.90625 3.265625 -6.90625 C 1.625 -6.90625 0.640625 -6.109375 0.640625 -4.78125 C 0.640625 -3.921875 1.15625 -3.296875 2.09375 -3.015625 L 3.484375 -2.609375 C 4.03125 -2.4375 4.296875 -2.125 4.296875 -1.65625 C 4.296875 -0.921875 3.671875 -0.375 2.8125 -0.375 C 2.140625 -0.375 1.484375 -0.671875 1.1875 -1.140625 L 1.109375 -2 Z M 0.71875 -2 "/>
</g>
<g id="glyph-0-3">
<path d="M 2.15625 -4.6875 L 1.453125 -4.46875 C 1.140625 -4.359375 0.90625 -4.328125 0.484375 -4.265625 C 0.453125 -4.265625 0.40625 -4.265625 0.34375 -4.25 L 0.34375 -3.890625 L 0.78125 -3.859375 C 1.015625 -3.84375 1.046875 -3.75 1.046875 -3.171875 L 1.046875 -1 C 1.046875 -0.453125 1 -0.375 0.6875 -0.359375 L 0.34375 -0.34375 L 0.34375 0.03125 L 1.625 0 C 1.8125 0 2.296875 0.015625 2.96875 0.03125 L 2.96875 -0.34375 L 2.609375 -0.359375 C 2.3125 -0.375 2.25 -0.453125 2.25 -1 L 2.25 -4.625 Z M 1.625 -7.015625 C 1.1875 -7.015625 0.859375 -6.703125 0.859375 -6.28125 C 0.859375 -5.859375 1.1875 -5.53125 1.609375 -5.53125 C 2.015625 -5.53125 2.359375 -5.859375 2.359375 -6.265625 C 2.359375 -6.671875 2.03125 -7.015625 1.625 -7.015625 Z M 1.625 -7.015625 "/>
</g>
<g id="glyph-0-4">
<path d="M 0.234375 -3.890625 L 0.6875 -3.859375 C 0.921875 -3.84375 0.9375 -3.75 0.9375 -3.171875 L 0.9375 -1 C 0.9375 -0.453125 0.890625 -0.375 0.59375 -0.359375 L 0.234375 -0.34375 L 0.234375 0.03125 L 1.515625 0 C 1.75 0 2.171875 0.015625 2.78125 0.03125 L 2.78125 -0.34375 L 2.515625 -0.359375 C 2.203125 -0.375 2.15625 -0.453125 2.15625 -1 L 2.15625 -3.15625 C 2.15625 -3.484375 2.5625 -3.828125 2.96875 -3.828125 C 3.53125 -3.828125 3.8125 -3.453125 3.8125 -2.671875 L 3.8125 -1 C 3.8125 -0.453125 3.78125 -0.375 3.453125 -0.359375 L 3.15625 -0.34375 L 3.15625 0.03125 C 4.1875 0 4.1875 0 4.4375 0 C 4.671875 0 4.671875 0 5.734375 0.03125 L 5.734375 -0.34375 L 5.390625 -0.359375 C 5.078125 -0.375 5.03125 -0.453125 5.03125 -1 L 5.03125 -3.15625 C 5.03125 -3.484375 5.4375 -3.828125 5.828125 -3.828125 C 6.40625 -3.828125 6.6875 -3.453125 6.6875 -2.671875 L 6.6875 0.03125 L 7.609375 0 C 8.109375 0.015625 8.171875 0.015625 8.59375 0.03125 L 8.59375 -0.34375 L 8.265625 -0.359375 C 7.953125 -0.375 7.90625 -0.453125 7.90625 -1 L 7.90625 -2.84375 C 7.90625 -4.21875 7.546875 -4.6875 6.484375 -4.6875 C 6.15625 -4.6875 5.9375 -4.625 5.765625 -4.484375 L 4.96875 -3.875 C 4.734375 -4.4375 4.34375 -4.6875 3.65625 -4.6875 C 3.34375 -4.6875 3.125 -4.625 2.953125 -4.484375 L 2.15625 -3.875 L 2.15625 -4.625 L 2.09375 -4.6875 C 1.0625 -4.34375 0.78125 -4.28125 0.234375 -4.25 Z M 0.234375 -3.890625 "/>
</g>
<g id="glyph-0-5">
<path d="M 3.890625 -0.796875 L 3.84375 0.03125 C 4.671875 0 4.671875 0 4.78125 0 C 4.875 0 5.046875 0 5.328125 0.015625 C 5.390625 0.015625 5.578125 0.015625 5.796875 0.03125 L 5.796875 -0.34375 L 5.46875 -0.359375 C 5.15625 -0.375 5.109375 -0.453125 5.109375 -1 L 5.109375 -4.625 L 5.015625 -4.6875 L 4.3125 -4.46875 C 3.984375 -4.359375 3.8125 -4.328125 3.1875 -4.25 L 3.1875 -3.890625 L 3.640625 -3.859375 C 3.859375 -3.84375 3.890625 -3.75 3.890625 -3.171875 L 3.890625 -1.625 C 3.890625 -1.140625 3.46875 -0.71875 2.9375 -0.71875 C 2.375 -0.71875 2.171875 -1.078125 2.171875 -2.03125 L 2.171875 -4.625 L 2.0625 -4.6875 L 1.375 -4.46875 C 1.046875 -4.359375 0.875 -4.328125 0.25 -4.25 L 0.25 -3.890625 L 0.703125 -3.859375 C 0.921875 -3.84375 0.953125 -3.75 0.953125 -3.171875 L 0.953125 -1.390625 C 0.953125 -0.390625 1.484375 0.171875 2.4375 0.171875 C 2.734375 0.171875 2.984375 0.09375 3.140625 -0.0625 Z M 3.890625 -0.796875 "/>
</g>
<g id="glyph-0-6">
<path d="M 2.15625 -7.15625 L 1.4375 -6.9375 C 1.15625 -6.84375 0.8125 -6.78125 0.234375 -6.734375 L 0.234375 -6.375 L 0.765625 -6.34375 C 0.984375 -6.328125 1.03125 -6.234375 1.03125 -5.640625 L 1.03125 -1 C 1.03125 -0.453125 0.96875 -0.375 0.671875 -0.359375 L 0.3125 -0.34375 L 0.3125 0.03125 L 1.59375 0 C 1.796875 0 2.28125 0.015625 2.9375 0.03125 L 2.9375 -0.34375 L 2.59375 -0.359375 C 2.28125 -0.375 2.234375 -0.453125 2.234375 -1 L 2.234375 -7.09375 Z M 2.15625 -7.15625 "/>
</g>
<g id="glyph-0-7">
<path d="M 2.96875 -0.671875 L 2.921875 -0.046875 L 2.96875 0.03125 C 3.59375 0.015625 3.75 0 3.875 0 C 4 0 4.15625 0.015625 4.75 0.03125 L 4.75 -0.34375 L 4.453125 -0.375 C 4.234375 -0.40625 4.1875 -0.5 4.171875 -0.96875 L 4.171875 -1.1875 C 4.15625 -1.5 4.15625 -1.78125 4.15625 -2.015625 C 4.15625 -2.28125 4.15625 -2.609375 4.171875 -2.984375 C 4.1875 -3.109375 4.1875 -3.203125 4.1875 -3.265625 C 4.1875 -4.15625 3.59375 -4.6875 2.578125 -4.6875 C 2.171875 -4.6875 1.765625 -4.578125 1.390625 -4.34375 L 0.859375 -4.03125 L 0.859375 -3.34375 L 1.15625 -3.265625 L 1.375 -3.765625 C 1.40625 -3.828125 1.6875 -3.90625 1.953125 -3.90625 C 2.625 -3.90625 2.9375 -3.546875 2.96875 -2.734375 L 2.09375 -2.546875 C 0.84375 -2.296875 0.390625 -1.90625 0.390625 -1.0625 C 0.390625 -0.265625 0.8125 0.171875 1.5625 0.171875 C 1.78125 0.171875 1.953125 0.125 2.046875 0.046875 Z M 2.96875 -1.140625 C 2.78125 -0.890625 2.421875 -0.703125 2.109375 -0.703125 C 1.796875 -0.703125 1.609375 -0.9375 1.609375 -1.328125 C 1.609375 -1.8125 1.8125 -2 2.53125 -2.203125 L 2.96875 -2.3125 Z M 2.96875 -1.140625 "/>
</g>
<g id="glyph-0-8">
<path d="M 3.875 -2.953125 C 3.9375 -3.59375 3.984375 -3.921875 4.078125 -4.359375 L 4 -4.484375 C 3.546875 -4.640625 3.34375 -4.6875 2.984375 -4.6875 C 2.609375 -4.6875 2.328125 -4.609375 2.09375 -4.46875 L 1.5625 -4.15625 C 0.6875 -3.640625 0.375 -3.140625 0.375 -2.28125 C 0.375 -0.703125 1.15625 0.171875 2.578125 0.171875 C 3.078125 0.171875 3.4375 0.078125 3.90625 -0.171875 L 4.109375 -0.625 L 4.03125 -0.71875 C 3.6875 -0.59375 3.46875 -0.53125 3.1875 -0.53125 C 2.203125 -0.53125 1.59375 -1.328125 1.59375 -2.578125 C 1.59375 -3.484375 1.9375 -3.96875 2.578125 -3.96875 C 3.015625 -3.96875 3.421875 -3.78125 3.453125 -3.546875 L 3.515625 -2.953125 Z M 3.875 -2.953125 "/>
</g>
<g id="glyph-0-9">
<path d="M 2.859375 -4.6875 C 1.265625 -4.6875 0.390625 -3.8125 0.390625 -2.21875 C 0.390625 -0.703125 1.21875 0.171875 2.65625 0.171875 C 4.25 0.171875 5.140625 -0.734375 5.140625 -2.34375 C 5.140625 -3.859375 4.328125 -4.6875 2.859375 -4.6875 Z M 2.734375 -4.203125 C 3.453125 -4.203125 3.78125 -3.5 3.78125 -2.03125 C 3.78125 -0.828125 3.515625 -0.3125 2.828125 -0.3125 C 2.109375 -0.3125 1.75 -1.03125 1.75 -2.46875 C 1.75 -3.671875 2.046875 -4.203125 2.734375 -4.203125 Z M 1.890625 -5.03125 L 2.4375 -5.03125 L 3.75 -5.828125 L 3.828125 -5.890625 C 4.15625 -6.078125 4.25 -6.21875 4.25 -6.421875 C 4.25 -6.703125 4.078125 -6.859375 3.8125 -6.859375 C 3.578125 -6.859375 3.40625 -6.75 3.171875 -6.5 Z M 1.890625 -5.03125 "/>
</g>
<g id="glyph-0-10">
<path d="M 0.234375 -3.890625 L 0.6875 -3.859375 C 0.921875 -3.84375 0.9375 -3.75 0.9375 -3.171875 L 0.9375 -1 C 0.9375 -0.453125 0.890625 -0.375 0.59375 -0.359375 L 0.234375 -0.34375 L 0.234375 0.03125 L 1.515625 0 C 1.71875 0 2.203125 0.015625 2.859375 0.03125 L 2.859375 -0.34375 L 2.515625 -0.359375 C 2.203125 -0.375 2.15625 -0.453125 2.15625 -1 L 2.15625 -3.15625 C 2.15625 -3.5 2.5625 -3.828125 3 -3.828125 C 3.65625 -3.828125 3.9375 -3.484375 3.9375 -2.6875 L 3.9375 0.03125 C 4.5 0.015625 4.671875 0 4.828125 0 C 4.96875 0 4.96875 0 5.828125 0.03125 L 5.828125 -0.34375 L 5.5 -0.359375 C 5.203125 -0.375 5.140625 -0.453125 5.140625 -1 L 5.140625 -2.84375 C 5.140625 -3.609375 5.0625 -3.984375 4.796875 -4.265625 C 4.546875 -4.53125 4.140625 -4.6875 3.640625 -4.6875 C 3.34375 -4.6875 3.109375 -4.625 2.953125 -4.484375 L 2.15625 -3.875 L 2.15625 -4.625 L 2.09375 -4.6875 C 1.0625 -4.34375 0.78125 -4.28125 0.234375 -4.25 Z M 0.234375 -3.890625 "/>
</g>
<g id="glyph-0-11">
<path d="M 1.25 -1.4375 C 0.828125 -1.4375 0.46875 -1.0625 0.46875 -0.640625 C 0.46875 -0.234375 0.828125 0.125 1.234375 0.125 C 1.65625 0.125 2.015625 -0.234375 2.015625 -0.640625 C 2.015625 -1.046875 1.65625 -1.4375 1.25 -1.4375 Z M 1.25 -4.515625 C 0.828125 -4.515625 0.46875 -4.140625 0.46875 -3.734375 C 0.46875 -3.3125 0.828125 -2.96875 1.234375 -2.96875 C 1.65625 -2.96875 2.015625 -3.3125 2.015625 -3.734375 C 2.015625 -4.140625 1.65625 -4.515625 1.25 -4.515625 Z M 1.25 -4.515625 "/>
</g>
<g id="glyph-0-12">
<path d="M 0.25 0.03125 L 1.953125 0 L 2.390625 0 L 4.6875 0.03125 C 4.65625 -0.203125 4.65625 -0.34375 4.65625 -0.5 C 4.65625 -0.71875 4.671875 -0.84375 4.6875 -1.109375 L 4.65625 -1.15625 L 1.65625 -1.046875 L 1.625 -1.140625 L 3.359375 -2.828125 C 4.015625 -3.484375 4.375 -4.203125 4.375 -4.84375 C 4.375 -5.84375 3.5 -6.5625 2.265625 -6.5625 C 1.671875 -6.5625 1.234375 -6.390625 0.671875 -5.96875 L 0.484375 -4.328125 L 0.859375 -4.296875 L 1.03125 -4.96875 C 1.109375 -5.265625 1.5625 -5.515625 2 -5.515625 C 2.65625 -5.515625 3.078125 -5.078125 3.078125 -4.40625 C 3.078125 -3.65625 2.6875 -2.90625 1.90625 -2.125 L 0.25 -0.484375 Z M 0.25 0.03125 "/>
</g>
<g id="glyph-0-13">
<path d="M 6.875 -0.859375 L 6.75 -0.984375 C 6.109375 -0.640625 5.46875 -0.484375 4.8125 -0.484375 C 3.078125 -0.484375 1.921875 -1.703125 1.921875 -3.59375 C 1.921875 -5.296875 2.90625 -6.34375 4.46875 -6.34375 C 5.21875 -6.34375 5.703125 -6.15625 6.234375 -5.671875 L 6.296875 -4.8125 L 6.671875 -4.8125 C 6.78125 -5.765625 6.8125 -5.953125 6.90625 -6.328125 L 6.84375 -6.4375 C 5.9375 -6.796875 5.390625 -6.90625 4.515625 -6.90625 C 2 -6.90625 0.4375 -5.578125 0.4375 -3.453125 C 0.4375 -1.21875 1.96875 0.171875 4.421875 0.171875 C 5.34375 0.171875 5.921875 0.03125 6.65625 -0.375 Z M 6.875 -0.859375 "/>
</g>
<g id="glyph-0-14">
<path d="M 2.859375 -4.6875 C 1.265625 -4.6875 0.390625 -3.8125 0.390625 -2.21875 C 0.390625 -0.703125 1.21875 0.171875 2.65625 0.171875 C 4.25 0.171875 5.140625 -0.734375 5.140625 -2.34375 C 5.140625 -3.859375 4.328125 -4.6875 2.859375 -4.6875 Z M 2.734375 -4.203125 C 3.453125 -4.203125 3.78125 -3.5 3.78125 -2.03125 C 3.78125 -0.828125 3.515625 -0.3125 2.828125 -0.3125 C 2.109375 -0.3125 1.75 -1.03125 1.75 -2.46875 C 1.75 -3.671875 2.046875 -4.203125 2.734375 -4.203125 Z M 2.734375 -4.203125 "/>
</g>
<g id="glyph-0-15">
<path d="M 4.578125 -2.9375 C 4.578125 -4 3.828125 -4.6875 2.703125 -4.6875 C 2.359375 -4.6875 2.09375 -4.609375 1.828125 -4.453125 L 1.359375 -4.171875 C 0.703125 -3.78125 0.421875 -3.1875 0.421875 -2.25 C 0.421875 -0.671875 1.21875 0.171875 2.6875 0.171875 C 3.265625 0.171875 3.625 0.0625 4.265625 -0.265625 L 4.484375 -0.734375 L 4.359375 -0.890625 C 3.890625 -0.625 3.59375 -0.53125 3.203125 -0.53125 C 2.6875 -0.53125 2.203125 -0.8125 1.953125 -1.25 C 1.78125 -1.515625 1.734375 -1.75 1.703125 -2.21875 L 3.015625 -2.21875 C 3.578125 -2.21875 4.03125 -2.28125 4.578125 -2.421875 Z M 2.484375 -2.71875 L 2.4375 -2.71875 C 2.390625 -2.71875 2.109375 -2.71875 1.96875 -2.734375 L 1.65625 -2.75 C 1.671875 -3.734375 1.921875 -4.125 2.5 -4.125 C 3.0625 -4.125 3.296875 -3.734375 3.3125 -2.75 Z M 2.484375 -2.71875 "/>
</g>
<g id="glyph-0-16">
<path d="M 3.21875 -0.59375 L 3.140625 -0.78125 C 2.9375 -0.6875 2.84375 -0.65625 2.6875 -0.65625 C 2.21875 -0.65625 2.0625 -0.8125 2.0625 -1.296875 L 2.0625 -3.671875 L 3.125 -3.671875 L 3.203125 -4.3125 L 2.0625 -4.25 L 2.0625 -4.828125 C 2.0625 -5.359375 2.09375 -5.6875 2.1875 -6.1875 L 2.046875 -6.28125 C 1.65625 -6.09375 1.34375 -5.96875 0.828125 -5.78125 C 0.859375 -5.265625 0.875 -5.078125 0.875 -4.875 L 0.875 -4.265625 L 0.21875 -3.84375 L 0.21875 -3.625 L 0.859375 -3.671875 L 0.859375 -1.09375 C 0.859375 -0.203125 1.21875 0.171875 2.09375 0.171875 C 2.390625 0.171875 2.640625 0.09375 2.734375 -0.015625 Z M 3.21875 -0.59375 "/>
</g>
<g id="glyph-0-17">
<path d="M 3.59375 -3.234375 L 3.671875 -4.453125 C 3.296875 -4.625 2.984375 -4.6875 2.453125 -4.6875 C 1.109375 -4.6875 0.390625 -4.140625 0.390625 -3.15625 C 0.390625 -2.5 0.75 -2.078125 1.4375 -1.90625 L 2.296875 -1.703125 C 2.75 -1.59375 2.921875 -1.421875 2.921875 -1.078125 C 2.921875 -0.609375 2.5625 -0.3125 2 -0.3125 C 1.546875 -0.3125 1.21875 -0.453125 0.890625 -0.828125 L 0.84375 -1.515625 L 0.453125 -1.515625 L 0.390625 -0.109375 C 0.953125 0.09375 1.40625 0.171875 1.921875 0.171875 C 3.1875 0.171875 4.03125 -0.515625 4.03125 -1.546875 C 4.03125 -2.25 3.65625 -2.625 2.765625 -2.828125 L 1.953125 -3 C 1.5625 -3.09375 1.40625 -3.25 1.40625 -3.5625 C 1.40625 -3.953125 1.734375 -4.203125 2.28125 -4.203125 C 2.671875 -4.203125 3.109375 -4.015625 3.140625 -3.8125 L 3.234375 -3.234375 Z M 3.59375 -3.234375 "/>
</g>
<g id="glyph-0-18">
<path d="M 2.109375 -4.6875 L 1.421875 -4.46875 C 1.109375 -4.359375 0.921875 -4.328125 0.296875 -4.25 L 0.296875 -3.890625 L 0.75 -3.859375 C 0.96875 -3.84375 1 -3.75 1 -3.171875 L 1 -1 C 1 -0.453125 0.953125 -0.375 0.640625 -0.359375 L 0.296875 -0.34375 L 0.296875 0.03125 L 1.578125 0 C 1.703125 0 1.734375 0 3.078125 0.03125 L 3.078125 -0.34375 L 2.6875 -0.359375 C 2.265625 -0.375 2.21875 -0.4375 2.21875 -1 L 2.21875 -2.96875 C 2.21875 -3.265625 2.625 -3.59375 3.015625 -3.59375 C 3.265625 -3.59375 3.4375 -3.484375 3.578125 -3.234375 L 3.8125 -3.34375 L 3.859375 -4.625 C 3.765625 -4.65625 3.640625 -4.6875 3.5 -4.6875 C 3.21875 -4.6875 3.03125 -4.5625 2.65625 -4.15625 L 2.21875 -3.671875 L 2.21875 -4.625 Z M 2.109375 -4.6875 "/>
</g>
<g id="glyph-0-19">
<path d="M 0.21875 -1.546875 C 0.3125 -1.109375 0.34375 -0.859375 0.46875 -0.0625 C 0.890625 0.109375 1.21875 0.171875 1.703125 0.171875 C 3.28125 0.171875 4.546875 -0.90625 4.546875 -2.234375 C 4.546875 -2.765625 4.34375 -3.171875 3.9375 -3.4375 C 3.703125 -3.59375 3.484375 -3.65625 3.046875 -3.703125 C 3.8125 -4.109375 4.15625 -4.546875 4.15625 -5.15625 C 4.15625 -5.96875 3.40625 -6.5625 2.359375 -6.5625 C 1.8125 -6.5625 1.40625 -6.4375 0.828125 -6.109375 L 0.53125 -4.578125 L 0.875 -4.578125 C 1.0625 -5.265625 1.4375 -5.578125 2.03125 -5.578125 C 2.65625 -5.578125 3.046875 -5.234375 3.046875 -4.6875 C 3.046875 -4.046875 2.609375 -3.640625 1.921875 -3.640625 L 1.578125 -3.640625 L 1.390625 -2.90625 L 1.453125 -2.859375 C 1.65625 -2.921875 1.84375 -2.9375 2.0625 -2.9375 C 2.828125 -2.9375 3.3125 -2.453125 3.3125 -1.703125 C 3.3125 -0.9375 2.8125 -0.390625 2.09375 -0.390625 C 1.734375 -0.390625 1.40625 -0.515625 1.140625 -0.734375 C 0.921875 -0.9375 0.78125 -1.15625 0.5625 -1.640625 Z M 0.21875 -1.546875 "/>
</g>
<g id="glyph-0-20">
<path d="M 2.109375 -4.6875 L 1.40625 -4.46875 C 1.078125 -4.359375 0.90625 -4.328125 0.390625 -4.265625 L 0.28125 -4.25 L 0.28125 -3.890625 L 0.734375 -3.859375 C 0.96875 -3.84375 1 -3.75 1 -3.171875 L 1 1.546875 C 1 2.078125 0.9375 2.15625 0.640625 2.171875 L 0.28125 2.203125 L 0.28125 2.5625 L 1.5625 2.53125 C 1.703125 2.53125 1.71875 2.53125 3.015625 2.5625 L 3.015625 2.203125 L 2.5625 2.171875 C 2.25 2.171875 2.203125 2.078125 2.203125 1.546875 L 2.203125 0 C 2.6875 0.140625 2.859375 0.171875 3.09375 0.171875 C 3.421875 0.171875 3.78125 -0.015625 4.453125 -0.546875 C 4.515625 -0.59375 4.578125 -0.640625 4.625 -0.671875 C 5.28125 -1.171875 5.640625 -1.953125 5.640625 -2.84375 C 5.640625 -3.890625 4.875 -4.6875 3.828125 -4.6875 C 3.453125 -4.6875 3.15625 -4.578125 2.8125 -4.296875 L 2.203125 -3.8125 L 2.203125 -4.625 Z M 2.203125 -3.296875 C 2.421875 -3.625 2.75 -3.78125 3.15625 -3.78125 C 3.921875 -3.78125 4.375 -3.1875 4.375 -2.203125 C 4.375 -1.15625 3.9375 -0.5 3.203125 -0.5 C 2.796875 -0.5 2.46875 -0.671875 2.203125 -1.046875 Z M 2.203125 -3.296875 "/>
</g>
<g id="glyph-0-21">
<path d="M 0.1875 -1.640625 L 2.609375 -1.640625 L 2.609375 -1.109375 C 2.609375 -0.640625 2.421875 -0.390625 2.046875 -0.375 L 1.40625 -0.34375 L 1.40625 0.03125 C 1.90625 0.015625 2.359375 0.015625 2.53125 0.015625 C 2.84375 0 3.046875 0 3.171875 0 C 3.3125 0 3.3125 0 4.703125 0.03125 L 4.703125 -0.34375 L 4.34375 -0.375 C 3.96875 -0.390625 3.78125 -0.640625 3.78125 -1.109375 L 3.78125 -1.640625 L 4.65625 -1.640625 L 4.65625 -2.453125 L 3.78125 -2.453125 L 3.78125 -3.703125 C 3.78125 -4.453125 3.78125 -5.09375 3.828125 -6.5625 L 3.765625 -6.671875 L 2.546875 -6.40625 C 1.390625 -4.703125 0.6875 -3.4375 0.125 -2.03125 Z M 0.8125 -2.453125 C 0.875 -2.578125 0.890625 -2.609375 0.984375 -2.8125 C 1.09375 -3.078125 1.203125 -3.296875 1.25 -3.375 L 1.875 -4.53125 C 1.875 -4.546875 2.09375 -4.90625 2.28125 -5.234375 C 2.40625 -5.421875 2.515625 -5.609375 2.609375 -5.75 L 2.609375 -2.453125 Z M 0.8125 -2.453125 "/>
</g>
<g id="glyph-0-22">
<path d="M 4.65625 -2.046875 L 5.109375 -0.921875 C 5.140625 -0.8125 5.171875 -0.71875 5.171875 -0.640625 C 5.171875 -0.484375 5.078125 -0.375 4.96875 -0.375 L 4.4375 -0.34375 L 4.4375 0.03125 C 5.828125 0 5.828125 0 5.953125 0 C 6.0625 0 6.0625 0 7.515625 0.03125 L 7.515625 -0.34375 L 7.28125 -0.375 C 7 -0.40625 6.859375 -0.515625 6.734375 -0.8125 L 4.15625 -6.8125 L 3.453125 -6.8125 C 3.3125 -6.453125 3.21875 -6.1875 3.1875 -6.078125 C 3.046875 -5.6875 2.9375 -5.421875 2.890625 -5.3125 L 1.09375 -0.96875 C 0.921875 -0.578125 0.75 -0.390625 0.53125 -0.375 L 0.234375 -0.34375 L 0.234375 0.03125 C 0.5 0.015625 0.71875 0.015625 0.8125 0.015625 C 1.078125 0 1.265625 0 1.359375 0 C 1.453125 0 1.640625 0 1.921875 0.015625 C 2 0.015625 2.21875 0.015625 2.484375 0.03125 L 2.484375 -0.34375 L 1.984375 -0.375 C 1.8125 -0.375 1.703125 -0.515625 1.703125 -0.6875 C 1.703125 -0.75 1.71875 -0.859375 1.75 -0.9375 L 2.171875 -2.046875 Z M 3.40625 -5.125 L 4.4375 -2.609375 L 2.40625 -2.609375 Z M 3.40625 -5.125 "/>
</g>
<g id="glyph-0-23">
<path d="M 4.515625 -4.21875 L 4.515625 -4.5625 C 3.78125 -4.515625 3.4375 -4.515625 2.984375 -4.515625 C 2.671875 -4.515625 2.078125 -4.515625 0.640625 -4.5625 L 0.578125 -4.515625 L 0.546875 -3.1875 L 0.921875 -3.1875 L 0.953125 -3.421875 C 1.015625 -3.90625 1.15625 -4.015625 1.703125 -4.015625 L 2.875 -4.015625 L 1.1875 -1.65625 C 0.984375 -1.359375 0.8125 -1.125 0.15625 -0.296875 L 0.15625 0.03125 C 1.328125 0 1.328125 0 1.734375 0 L 4.4375 0.03125 L 4.484375 -0.015625 C 4.484375 -0.453125 4.546875 -1.0625 4.609375 -1.546875 L 4.21875 -1.546875 L 4.15625 -1.234375 C 4.078125 -0.671875 3.9375 -0.546875 3.46875 -0.546875 L 1.84375 -0.546875 Z M 4.515625 -4.21875 "/>
</g>
<g id="glyph-1-0">
<path d="M 3.3125 -0.96875 C 3.234375 -0.71875 3.203125 -0.453125 3.203125 -0.3125 C 3.203125 -0.0625 3.3125 0.09375 3.5 0.09375 C 3.75 0.09375 4.109375 -0.125 5.09375 -0.84375 L 4.984375 -1.03125 L 4.734375 -0.859375 C 4.484375 -0.703125 4.234375 -0.59375 4.125 -0.59375 C 4.046875 -0.59375 4 -0.65625 4 -0.75 C 4 -0.828125 4.015625 -0.9375 4.046875 -1.09375 L 4.046875 -1.15625 C 4.28125 -2.234375 4.59375 -3.5625 4.890625 -4.703125 L 4.8125 -4.796875 L 4.140625 -4.625 L 4.046875 -4.109375 C 3.890625 -3.34375 3.640625 -2.65625 3.34375 -2.203125 C 2.75 -1.296875 1.984375 -0.59375 1.578125 -0.59375 C 1.5 -0.59375 1.453125 -0.671875 1.453125 -0.84375 C 1.453125 -0.984375 1.46875 -1.109375 1.515625 -1.359375 L 2.09375 -4.046875 C 2.109375 -4.21875 2.140625 -4.359375 2.140625 -4.484375 C 2.140625 -4.671875 2.046875 -4.796875 1.90625 -4.796875 C 1.703125 -4.796875 1.328125 -4.578125 0.59375 -4.046875 L 0.3125 -3.859375 L 0.390625 -3.65625 L 0.703125 -3.859375 C 0.984375 -4.046875 1.09375 -4.09375 1.1875 -4.09375 C 1.265625 -4.09375 1.34375 -4 1.34375 -3.890625 C 1.34375 -3.859375 1.34375 -3.75 1.328125 -3.71875 L 0.703125 -0.765625 C 0.6875 -0.671875 0.671875 -0.4375 0.671875 -0.296875 C 0.671875 -0.0625 0.8125 0.109375 1.015625 0.109375 C 1.640625 0.109375 2.84375 -1 3.671875 -2.375 Z M 3.3125 -0.96875 "/>
</g>
<g id="glyph-1-1">
<path d="M 1.140625 -0.03125 L 1.234375 0 C 1.484375 0.078125 1.640625 0.109375 1.75 0.109375 C 2.3125 0.109375 3.453125 -0.609375 3.875 -1.25 C 4.28125 -1.84375 4.625 -2.9375 4.625 -3.6875 C 4.625 -4.359375 4.390625 -4.796875 4.03125 -4.796875 C 3.625 -4.796875 3.09375 -4.53125 2.578125 -4.0625 C 2.171875 -3.71875 1.96875 -3.453125 1.609375 -2.875 L 1.84375 -4.046875 C 1.875 -4.21875 1.890625 -4.375 1.890625 -4.484375 C 1.890625 -4.6875 1.8125 -4.796875 1.671875 -4.796875 C 1.46875 -4.796875 1.09375 -4.578125 0.359375 -4.046875 L 0.078125 -3.859375 L 0.15625 -3.65625 L 0.46875 -3.859375 C 0.75 -4.046875 0.859375 -4.09375 0.9375 -4.09375 C 1.046875 -4.09375 1.109375 -4 1.109375 -3.859375 C 1.109375 -3.78125 1.09375 -3.59375 1.078125 -3.484375 L 0.5 -0.078125 C 0.390625 0.515625 0.203125 1.421875 0.015625 2.3125 L -0.0625 2.6875 L 0 2.75 C 0.203125 2.671875 0.40625 2.625 0.71875 2.578125 Z M 1.421875 -1.640625 C 1.640625 -2.90625 2.703125 -4.21875 3.53125 -4.21875 C 3.78125 -4.21875 3.90625 -4 3.90625 -3.53125 C 3.90625 -2.734375 3.515625 -1.546875 2.984375 -0.796875 C 2.78125 -0.5 2.46875 -0.359375 2.0625 -0.359375 C 1.75 -0.359375 1.5 -0.421875 1.25 -0.59375 Z M 1.421875 -1.640625 "/>
</g>
<g id="glyph-2-0">
<path d="M 2.609375 1.890625 C 2.609375 1.859375 2.609375 1.84375 2.46875 1.71875 C 1.484375 0.71875 1.234375 -0.765625 1.234375 -1.96875 C 1.234375 -3.34375 1.53125 -4.703125 2.5 -5.6875 C 2.609375 -5.78125 2.609375 -5.796875 2.609375 -5.828125 C 2.609375 -5.875 2.578125 -5.90625 2.53125 -5.90625 C 2.453125 -5.90625 1.734375 -5.375 1.28125 -4.375 C 0.875 -3.5 0.78125 -2.625 0.78125 -1.96875 C 0.78125 -1.359375 0.859375 -0.40625 1.296875 0.484375 C 1.765625 1.453125 2.453125 1.96875 2.53125 1.96875 C 2.578125 1.96875 2.609375 1.9375 2.609375 1.890625 Z M 2.609375 1.890625 "/>
</g>
<g id="glyph-2-1">
<path d="M 2.28125 -1.96875 C 2.28125 -2.578125 2.1875 -3.53125 1.75 -4.421875 C 1.28125 -5.390625 0.609375 -5.90625 0.53125 -5.90625 C 0.484375 -5.90625 0.453125 -5.875 0.453125 -5.828125 C 0.453125 -5.796875 0.453125 -5.78125 0.59375 -5.640625 C 1.375 -4.859375 1.8125 -3.609375 1.8125 -1.96875 C 1.8125 -0.625 1.53125 0.765625 0.546875 1.75 C 0.453125 1.84375 0.453125 1.859375 0.453125 1.890625 C 0.453125 1.9375 0.484375 1.96875 0.53125 1.96875 C 0.609375 1.96875 1.3125 1.4375 1.78125 0.4375 C 2.1875 -0.4375 2.28125 -1.3125 2.28125 -1.96875 Z M 2.28125 -1.96875 "/>
</g>
<g id="glyph-2-2">
<path d="M 3.21875 -1.8125 L 5.421875 -1.8125 C 5.53125 -1.8125 5.671875 -1.8125 5.671875 -1.96875 C 5.671875 -2.125 5.53125 -2.125 5.421875 -2.125 L 3.21875 -2.125 L 3.21875 -4.328125 C 3.21875 -4.4375 3.21875 -4.59375 3.0625 -4.59375 C 2.90625 -4.59375 2.90625 -4.4375 2.90625 -4.328125 L 2.90625 -2.125 L 0.703125 -2.125 C 0.59375 -2.125 0.4375 -2.125 0.4375 -1.96875 C 0.4375 -1.8125 0.59375 -1.8125 0.703125 -1.8125 L 2.90625 -1.8125 L 2.90625 0.390625 C 2.90625 0.5 2.90625 0.65625 3.0625 0.65625 C 3.21875 0.65625 3.21875 0.5 3.21875 0.390625 Z M 3.21875 -1.8125 "/>
</g>
<g id="glyph-3-0">
<path d="M 1.765625 -5.453125 L 1.671875 -5.53125 C 1.28125 -5.328125 1.015625 -5.265625 0.46875 -5.21875 L 0.4375 -5.0625 L 0.796875 -5.0625 C 0.984375 -5.0625 1.0625 -5 1.0625 -4.875 C 1.0625 -4.8125 1.046875 -4.75 1.046875 -4.6875 L 0.671875 -2.671875 C 0.578125 -2.109375 0.453125 -1.578125 0.0625 0 L 0.125 0.0625 L 0.640625 -0.0625 L 0.8125 -1 C 0.875 -1.359375 1.0625 -1.703125 1.3125 -1.953125 C 1.828125 -0.4375 2.078125 0.0625 2.265625 0.0625 C 2.359375 0.0625 2.546875 -0.03125 2.875 -0.265625 L 3.21875 -0.5 L 3.15625 -0.65625 L 2.84375 -0.46875 C 2.734375 -0.40625 2.671875 -0.390625 2.625 -0.390625 C 2.546875 -0.390625 2.484375 -0.4375 2.421875 -0.5625 C 2.15625 -1.046875 2 -1.453125 1.703125 -2.390625 L 1.796875 -2.484375 C 2.265625 -2.953125 2.609375 -3.140625 2.984375 -3.140625 C 3.046875 -3.140625 3.125 -3.125 3.265625 -3.09375 L 3.390625 -3.5625 C 3.25 -3.609375 3.109375 -3.640625 3.03125 -3.640625 C 2.53125 -3.640625 1.90625 -3.0625 0.953125 -1.734375 Z M 1.765625 -5.453125 "/>
</g>
<g id="glyph-3-1">
<path d="M 3.640625 -5.453125 L 3.546875 -5.53125 C 3.15625 -5.328125 2.890625 -5.265625 2.34375 -5.21875 L 2.3125 -5.0625 L 2.671875 -5.0625 C 2.859375 -5.0625 2.9375 -5 2.9375 -4.875 C 2.9375 -4.8125 2.921875 -4.75 2.921875 -4.6875 L 2.703125 -3.53125 C 2.484375 -3.59375 2.28125 -3.640625 2.09375 -3.640625 C 1.5625 -3.640625 0.859375 -3.09375 0.515625 -2.4375 C 0.28125 -2 0.125 -1.28125 0.125 -0.65625 C 0.125 -0.15625 0.234375 0.078125 0.453125 0.078125 C 0.671875 0.078125 0.9375 -0.046875 1.203125 -0.25 C 1.609375 -0.578125 1.859375 -0.875 2.359375 -1.640625 L 2.1875 -0.953125 C 2.109375 -0.625 2.0625 -0.375 2.0625 -0.1875 C 2.0625 -0.015625 2.140625 0.0625 2.265625 0.0625 C 2.390625 0.0625 2.578125 -0.015625 2.828125 -0.21875 L 3.4375 -0.671875 L 3.359375 -0.8125 L 3.03125 -0.578125 C 2.921875 -0.5 2.8125 -0.4375 2.734375 -0.4375 C 2.671875 -0.4375 2.640625 -0.515625 2.640625 -0.625 C 2.640625 -0.671875 2.640625 -0.75 2.6875 -0.96875 Z M 2.546875 -2.65625 C 2.40625 -1.984375 2.03125 -1.328125 1.5625 -0.875 C 1.3125 -0.625 1 -0.4375 0.859375 -0.4375 C 0.734375 -0.4375 0.671875 -0.546875 0.671875 -0.734375 C 0.671875 -1.6875 1.015625 -2.875 1.390625 -3.15625 C 1.484375 -3.234375 1.625 -3.265625 1.828125 -3.265625 C 2.171875 -3.265625 2.390625 -3.21875 2.640625 -3.09375 Z M 2.546875 -2.65625 "/>
</g>
<g id="glyph-3-2">
<path d="M 2.515625 -0.734375 C 2.453125 -0.546875 2.4375 -0.34375 2.4375 -0.234375 C 2.4375 -0.046875 2.515625 0.0625 2.65625 0.0625 C 2.859375 0.0625 3.125 -0.09375 3.859375 -0.640625 L 3.78125 -0.78125 L 3.59375 -0.65625 C 3.40625 -0.53125 3.21875 -0.4375 3.125 -0.4375 C 3.078125 -0.4375 3.03125 -0.5 3.03125 -0.578125 C 3.03125 -0.640625 3.046875 -0.71875 3.078125 -0.828125 L 3.078125 -0.875 C 3.25 -1.703125 3.484375 -2.703125 3.71875 -3.5625 L 3.65625 -3.640625 L 3.140625 -3.515625 L 3.078125 -3.125 C 2.953125 -2.53125 2.765625 -2.015625 2.53125 -1.671875 C 2.09375 -0.984375 1.5 -0.4375 1.203125 -0.4375 C 1.140625 -0.4375 1.109375 -0.515625 1.109375 -0.640625 C 1.109375 -0.75 1.109375 -0.84375 1.15625 -1.03125 L 1.578125 -3.078125 C 1.609375 -3.203125 1.625 -3.3125 1.625 -3.40625 C 1.625 -3.546875 1.546875 -3.640625 1.453125 -3.640625 C 1.296875 -3.640625 1.015625 -3.484375 0.453125 -3.078125 L 0.234375 -2.921875 L 0.296875 -2.78125 L 0.53125 -2.9375 C 0.75 -3.078125 0.828125 -3.109375 0.890625 -3.109375 C 0.96875 -3.109375 1.03125 -3.046875 1.03125 -2.953125 C 1.03125 -2.921875 1.015625 -2.859375 1.015625 -2.828125 L 0.53125 -0.578125 C 0.515625 -0.515625 0.5 -0.328125 0.5 -0.21875 C 0.5 -0.046875 0.625 0.078125 0.765625 0.078125 C 1.25 0.078125 2.15625 -0.765625 2.796875 -1.796875 Z M 2.515625 -0.734375 "/>
</g>
<g id="glyph-3-3">
<path d="M 0.875 -0.015625 L 0.9375 0 C 1.125 0.0625 1.25 0.078125 1.328125 0.078125 C 1.75 0.078125 2.625 -0.46875 2.9375 -0.9375 C 3.25 -1.40625 3.515625 -2.234375 3.515625 -2.796875 C 3.515625 -3.3125 3.328125 -3.640625 3.0625 -3.640625 C 2.75 -3.640625 2.34375 -3.4375 1.953125 -3.09375 C 1.640625 -2.828125 1.5 -2.625 1.21875 -2.1875 L 1.40625 -3.078125 C 1.421875 -3.203125 1.4375 -3.328125 1.4375 -3.40625 C 1.4375 -3.546875 1.375 -3.640625 1.28125 -3.640625 C 1.109375 -3.640625 0.828125 -3.484375 0.265625 -3.078125 L 0.0625 -2.921875 L 0.109375 -2.78125 L 0.359375 -2.9375 C 0.5625 -3.078125 0.65625 -3.109375 0.71875 -3.109375 C 0.796875 -3.109375 0.84375 -3.046875 0.84375 -2.9375 C 0.84375 -2.875 0.828125 -2.71875 0.8125 -2.65625 L 0.375 -0.0625 C 0.296875 0.390625 0.15625 1.078125 0 1.765625 L -0.046875 2.03125 L 0 2.078125 C 0.15625 2.03125 0.3125 2 0.546875 1.953125 Z M 1.078125 -1.25 C 1.25 -2.21875 2.046875 -3.203125 2.671875 -3.203125 C 2.875 -3.203125 2.96875 -3.03125 2.96875 -2.6875 C 2.96875 -2.078125 2.65625 -1.171875 2.265625 -0.609375 C 2.109375 -0.390625 1.875 -0.265625 1.5625 -0.265625 C 1.328125 -0.265625 1.140625 -0.328125 0.9375 -0.4375 Z M 1.078125 -1.25 "/>
</g>
<g id="glyph-4-0">
<path d="M 2.84375 -4.421875 C 2.859375 -4.5625 2.859375 -4.8125 2.59375 -4.8125 C 2.421875 -4.8125 2.296875 -4.6875 2.328125 -4.546875 L 2.328125 -4.40625 L 2.46875 -2.8125 L 1.140625 -3.765625 C 1.046875 -3.828125 1.03125 -3.84375 0.953125 -3.84375 C 0.8125 -3.84375 0.671875 -3.703125 0.671875 -3.546875 C 0.671875 -3.390625 0.78125 -3.34375 0.875 -3.296875 L 2.34375 -2.59375 L 0.921875 -1.890625 C 0.75 -1.8125 0.671875 -1.765625 0.671875 -1.609375 C 0.671875 -1.453125 0.8125 -1.328125 0.953125 -1.328125 C 1.03125 -1.328125 1.046875 -1.328125 1.3125 -1.515625 L 2.46875 -2.359375 L 2.3125 -0.625 C 2.3125 -0.40625 2.5 -0.359375 2.578125 -0.359375 C 2.703125 -0.359375 2.859375 -0.421875 2.859375 -0.625 L 2.703125 -2.359375 L 4.03125 -1.40625 C 4.125 -1.34375 4.140625 -1.328125 4.21875 -1.328125 C 4.359375 -1.328125 4.5 -1.46875 4.5 -1.609375 C 4.5 -1.765625 4.40625 -1.828125 4.28125 -1.890625 C 3.65625 -2.203125 3.640625 -2.203125 2.8125 -2.578125 L 4.25 -3.28125 C 4.40625 -3.359375 4.5 -3.390625 4.5 -3.546875 C 4.5 -3.703125 4.359375 -3.84375 4.21875 -3.84375 C 4.140625 -3.84375 4.125 -3.84375 3.859375 -3.640625 L 2.703125 -2.8125 Z M 2.84375 -4.421875 "/>
</g>
<g id="glyph-4-1">
<path d="M 1.984375 -2.59375 C 1.984375 -2.890625 1.734375 -3.140625 1.4375 -3.140625 C 1.140625 -3.140625 0.890625 -2.890625 0.890625 -2.59375 C 0.890625 -2.296875 1.140625 -2.046875 1.4375 -2.046875 C 1.734375 -2.046875 1.984375 -2.296875 1.984375 -2.59375 Z M 1.984375 -2.59375 "/>
</g>
<g id="glyph-5-0">
<path d="M 4.234375 -2.375 L 7.125 -2.375 C 7.265625 -2.375 7.46875 -2.375 7.46875 -2.59375 C 7.46875 -2.796875 7.265625 -2.796875 7.125 -2.796875 L 4.234375 -2.796875 L 4.234375 -5.703125 C 4.234375 -5.84375 4.234375 -6.046875 4.03125 -6.046875 C 3.828125 -6.046875 3.828125 -5.84375 3.828125 -5.703125 L 3.828125 -2.796875 L 0.921875 -2.796875 C 0.78125 -2.796875 0.578125 -2.796875 0.578125 -2.59375 C 0.578125 -2.375 0.78125 -2.375 0.921875 -2.375 L 3.828125 -2.375 L 3.828125 0.515625 C 3.828125 0.65625 3.828125 0.859375 4.03125 0.859375 C 4.234375 0.859375 4.234375 0.65625 4.234375 0.515625 Z M 4.234375 -2.375 "/>
</g>
<g id="glyph-5-1">
<path d="M 7.109375 -3.390625 C 7.265625 -3.390625 7.46875 -3.390625 7.46875 -3.59375 C 7.46875 -3.796875 7.265625 -3.796875 7.125 -3.796875 L 0.921875 -3.796875 C 0.78125 -3.796875 0.578125 -3.796875 0.578125 -3.59375 C 0.578125 -3.390625 0.78125 -3.390625 0.9375 -3.390625 Z M 7.125 -1.375 C 7.265625 -1.375 7.46875 -1.375 7.46875 -1.578125 C 7.46875 -1.796875 7.265625 -1.796875 7.109375 -1.796875 L 0.9375 -1.796875 C 0.78125 -1.796875 0.578125 -1.796875 0.578125 -1.578125 C 0.578125 -1.375 0.78125 -1.375 0.921875 -1.375 Z M 7.125 -1.375 "/>
</g>
<g id="glyph-6-0">
<path d="M 3.859375 -1.109375 L 3.625 -0.9375 C 3.09375 -0.5625 2.609375 -0.390625 2.25 -0.390625 C 1.8125 -0.390625 1.1875 -0.859375 1.046875 -1.5 C 1.03125 -1.59375 1.03125 -1.703125 1.03125 -1.8125 C 1.03125 -1.9375 1.03125 -2.0625 1.046875 -2.1875 C 1.296875 -2.21875 1.78125 -2.21875 1.84375 -2.21875 C 2.328125 -2.21875 2.9375 -2.21875 3.234375 -2.203125 L 3.296875 -2.265625 L 3.4375 -2.609375 C 2.703125 -2.59375 2.578125 -2.59375 2.203125 -2.59375 C 2.140625 -2.59375 1.484375 -2.609375 1.125 -2.609375 C 1.21875 -3.09375 1.40625 -3.625 1.828125 -3.984375 C 2.109375 -4.21875 2.453125 -4.359375 2.796875 -4.359375 C 3.125 -4.359375 3.453125 -4.28125 3.65625 -4.046875 C 3.734375 -3.96875 3.828125 -3.8125 3.921875 -3.65625 L 4.109375 -3.671875 L 4.515625 -4.1875 C 4.203125 -4.5625 3.734375 -4.796875 3.203125 -4.796875 C 2.5625 -4.796875 1.921875 -4.546875 1.375 -4.078125 C 0.75 -3.5625 0.328125 -2.828125 0.203125 -2.0625 C 0.171875 -1.890625 0.15625 -1.703125 0.15625 -1.546875 C 0.15625 -1.109375 0.265625 -0.703125 0.53125 -0.390625 C 0.828125 -0.015625 1.375 0.109375 1.890625 0.109375 C 2.484375 0.109375 3 -0.171875 3.9375 -0.921875 Z M 3.859375 -1.109375 "/>
</g>
<g id="glyph-7-0">
<path d="M 1.65625 -2.875 C 1.40625 -2.875 1.125 -2.78125 0.859375 -2.578125 C 0.375 -2.234375 0.09375 -1.640625 0.09375 -0.90625 C 0.09375 -0.28125 0.375 0.0625 0.859375 0.0625 C 1.1875 0.0625 1.546875 -0.09375 1.828125 -0.34375 C 2.1875 -0.6875 2.453125 -1.375 2.453125 -1.96875 C 2.453125 -2.53125 2.15625 -2.875 1.65625 -2.875 Z M 1.4375 -2.65625 C 1.796875 -2.65625 2 -2.375 2 -1.875 C 2 -1.3125 1.8125 -0.671875 1.546875 -0.359375 C 1.4375 -0.234375 1.296875 -0.15625 1.109375 -0.15625 C 0.765625 -0.15625 0.5625 -0.4375 0.5625 -0.90625 C 0.5625 -1.578125 0.78125 -2.3125 1.078125 -2.546875 C 1.15625 -2.609375 1.296875 -2.65625 1.4375 -2.65625 Z M 1.4375 -2.65625 "/>
</g>
<g id="glyph-7-1">
<path d="M 1.40625 -4.3125 L 1.328125 -4.375 C 1.015625 -4.21875 0.8125 -4.171875 0.375 -4.125 L 0.359375 -4 L 0.640625 -4 C 0.78125 -4 0.84375 -3.953125 0.84375 -3.859375 C 0.84375 -3.8125 0.828125 -3.75 0.828125 -3.71875 L 0.234375 -0.421875 C 0.21875 -0.40625 0.21875 -0.375 0.21875 -0.359375 C 0.21875 -0.125 0.5 0.0625 0.828125 0.0625 C 1.0625 0.0625 1.359375 -0.046875 1.625 -0.234375 C 2.1875 -0.640625 2.578125 -1.453125 2.578125 -2.25 C 2.578125 -2.46875 2.53125 -2.703125 2.453125 -2.796875 C 2.421875 -2.84375 2.34375 -2.875 2.25 -2.875 C 2.109375 -2.875 1.921875 -2.828125 1.765625 -2.75 C 1.453125 -2.578125 1.265625 -2.40625 0.890625 -1.9375 Z M 1.921875 -2.53125 C 2.078125 -2.53125 2.15625 -2.390625 2.15625 -2.09375 C 2.15625 -1.71875 2.03125 -1.203125 1.84375 -0.8125 C 1.65625 -0.40625 1.421875 -0.21875 1.09375 -0.21875 C 0.8125 -0.21875 0.671875 -0.359375 0.671875 -0.609375 C 0.671875 -0.75 0.6875 -0.921875 0.75 -1.140625 C 0.859375 -1.625 1 -1.90625 1.234375 -2.15625 C 1.4375 -2.359375 1.75 -2.53125 1.921875 -2.53125 Z M 1.921875 -2.53125 "/>
</g>
<g id="glyph-7-2">
<path d="M 0.1875 -0.890625 C 0.15625 -0.578125 0.125 -0.375 0.046875 -0.09375 C 0.28125 0.015625 0.484375 0.0625 0.6875 0.0625 C 0.984375 0.0625 1.265625 -0.046875 1.5625 -0.28125 C 1.875 -0.515625 2 -0.734375 2 -1.03125 C 2 -1.359375 1.796875 -1.53125 1.359375 -1.625 L 1.109375 -1.671875 C 0.75 -1.734375 0.625 -1.828125 0.625 -2.078125 C 0.625 -2.390625 0.90625 -2.640625 1.234375 -2.640625 C 1.484375 -2.640625 1.71875 -2.53125 1.8125 -2.375 L 1.8125 -2.046875 L 1.953125 -2.046875 C 1.96875 -2.25 2 -2.40625 2.0625 -2.71875 C 1.828125 -2.828125 1.65625 -2.875 1.46875 -2.875 C 1.15625 -2.875 0.78125 -2.703125 0.5 -2.40625 C 0.34375 -2.25 0.28125 -2.09375 0.28125 -1.890625 C 0.28125 -1.546875 0.46875 -1.359375 0.859375 -1.28125 L 1.234375 -1.21875 C 1.5 -1.15625 1.59375 -1.0625 1.59375 -0.828125 C 1.59375 -0.4375 1.3125 -0.171875 0.890625 -0.171875 C 0.6875 -0.171875 0.5 -0.234375 0.328125 -0.375 L 0.328125 -0.890625 Z M 0.1875 -0.890625 "/>
</g>
<g id="glyph-7-3">
<path d="M 1.390625 -4.3125 L 1.328125 -4.375 C 1.015625 -4.21875 0.796875 -4.171875 0.375 -4.125 L 0.34375 -4 L 0.625 -4 C 0.78125 -4 0.828125 -3.953125 0.828125 -3.859375 C 0.828125 -3.8125 0.828125 -3.75 0.828125 -3.71875 L 0.53125 -2.109375 C 0.453125 -1.671875 0.359375 -1.25 0.046875 0 L 0.09375 0.046875 L 0.5 -0.046875 L 0.640625 -0.78125 C 0.6875 -1.078125 0.828125 -1.34375 1.03125 -1.546875 C 1.453125 -0.359375 1.640625 0.046875 1.796875 0.046875 C 1.875 0.046875 2.015625 -0.03125 2.28125 -0.203125 L 2.546875 -0.40625 L 2.5 -0.515625 L 2.25 -0.375 C 2.15625 -0.328125 2.125 -0.3125 2.078125 -0.3125 C 2.015625 -0.3125 1.96875 -0.34375 1.921875 -0.453125 C 1.703125 -0.828125 1.578125 -1.15625 1.34375 -1.890625 L 1.421875 -1.96875 C 1.796875 -2.328125 2.0625 -2.484375 2.359375 -2.484375 C 2.40625 -2.484375 2.484375 -2.46875 2.578125 -2.453125 L 2.6875 -2.828125 C 2.578125 -2.859375 2.46875 -2.875 2.390625 -2.875 C 2 -2.875 1.5 -2.421875 0.765625 -1.375 Z M 1.390625 -4.3125 "/>
</g>
<g id="glyph-8-0">
<path d="M 2.0625 1.5 C 2.0625 1.46875 2.0625 1.46875 1.953125 1.359375 C 1.171875 0.578125 0.96875 -0.609375 0.96875 -1.546875 C 0.96875 -2.640625 1.21875 -3.71875 1.984375 -4.5 C 2.0625 -4.578125 2.0625 -4.578125 2.0625 -4.609375 C 2.0625 -4.640625 2.03125 -4.65625 2 -4.65625 C 1.9375 -4.65625 1.375 -4.234375 1 -3.453125 C 0.6875 -2.765625 0.609375 -2.078125 0.609375 -1.546875 C 0.609375 -1.0625 0.6875 -0.3125 1.03125 0.390625 C 1.40625 1.15625 1.9375 1.546875 2 1.546875 C 2.03125 1.546875 2.0625 1.53125 2.0625 1.5 Z M 2.0625 1.5 "/>
</g>
<g id="glyph-8-1">
<path d="M 1.796875 -1.546875 C 1.796875 -2.046875 1.734375 -2.796875 1.390625 -3.5 C 1.015625 -4.265625 0.484375 -4.65625 0.421875 -4.65625 C 0.375 -4.65625 0.359375 -4.640625 0.359375 -4.609375 C 0.359375 -4.578125 0.359375 -4.578125 0.46875 -4.453125 C 1.078125 -3.84375 1.4375 -2.859375 1.4375 -1.546875 C 1.4375 -0.484375 1.203125 0.609375 0.4375 1.390625 C 0.359375 1.46875 0.359375 1.46875 0.359375 1.5 C 0.359375 1.53125 0.375 1.546875 0.421875 1.546875 C 0.484375 1.546875 1.03125 1.125 1.40625 0.34375 C 1.71875 -0.34375 1.796875 -1.03125 1.796875 -1.546875 Z M 1.796875 -1.546875 "/>
</g>
<g id="glyph-9-0">
<path d="M 2.171875 -3.359375 C 2.171875 -3.46875 2.171875 -3.65625 1.96875 -3.65625 C 1.84375 -3.65625 1.734375 -3.5625 1.765625 -3.453125 L 1.765625 -3.359375 L 1.875 -2.140625 L 0.859375 -2.859375 C 0.796875 -2.90625 0.78125 -2.921875 0.71875 -2.921875 C 0.609375 -2.921875 0.515625 -2.8125 0.515625 -2.703125 C 0.515625 -2.578125 0.59375 -2.546875 0.671875 -2.5 L 1.78125 -1.96875 L 0.703125 -1.4375 C 0.578125 -1.375 0.515625 -1.34375 0.515625 -1.234375 C 0.515625 -1.109375 0.609375 -1.015625 0.71875 -1.015625 C 0.78125 -1.015625 0.796875 -1.015625 1 -1.15625 L 1.875 -1.796875 L 1.75 -0.46875 C 1.75 -0.3125 1.890625 -0.265625 1.953125 -0.265625 C 2.0625 -0.265625 2.171875 -0.328125 2.171875 -0.46875 L 2.0625 -1.796875 L 3.0625 -1.0625 C 3.140625 -1.03125 3.15625 -1.015625 3.203125 -1.015625 C 3.3125 -1.015625 3.421875 -1.125 3.421875 -1.234375 C 3.421875 -1.34375 3.34375 -1.390625 3.25 -1.4375 C 2.78125 -1.671875 2.765625 -1.671875 2.140625 -1.953125 L 3.234375 -2.484375 C 3.359375 -2.546875 3.421875 -2.578125 3.421875 -2.703125 C 3.421875 -2.8125 3.3125 -2.921875 3.203125 -2.921875 C 3.15625 -2.921875 3.140625 -2.921875 2.9375 -2.765625 L 2.0625 -2.140625 Z M 2.171875 -3.359375 "/>
</g>
<g id="glyph-10-0">
<path d="M 5.125 17.375 C 5.140625 17.375 5.234375 17.484375 5.234375 17.484375 L 5.453125 17.484375 C 5.484375 17.484375 5.5625 17.46875 5.5625 17.375 C 5.5625 17.34375 5.546875 17.328125 5.53125 17.296875 C 5.171875 16.9375 4.625 16.390625 4.015625 15.296875 C 2.9375 13.390625 2.546875 10.9375 2.546875 8.546875 C 2.546875 4.140625 3.796875 1.546875 5.53125 -0.21875 C 5.5625 -0.25 5.5625 -0.28125 5.5625 -0.296875 C 5.5625 -0.390625 5.5 -0.390625 5.375 -0.390625 C 5.25 -0.390625 5.234375 -0.390625 5.140625 -0.3125 C 4.1875 0.5 3.125 1.875 2.4375 3.96875 C 2.015625 5.28125 1.78125 6.890625 1.78125 8.53125 C 1.78125 10.890625 2.21875 13.5625 3.78125 15.859375 C 4.046875 16.25 4.40625 16.65625 4.40625 16.671875 C 4.515625 16.78125 4.65625 16.9375 4.734375 17.015625 Z M 5.125 17.375 "/>
</g>
<g id="glyph-10-1">
<path d="M 4.140625 8.53125 C 4.140625 5.6875 3.46875 2.65625 1.515625 0.421875 C 1.375 0.265625 1 -0.125 0.765625 -0.34375 C 0.703125 -0.390625 0.671875 -0.390625 0.546875 -0.390625 C 0.453125 -0.390625 0.359375 -0.390625 0.359375 -0.296875 C 0.359375 -0.265625 0.390625 -0.21875 0.421875 -0.203125 C 0.75 0.15625 1.296875 0.703125 1.90625 1.78125 C 2.984375 3.703125 3.375 6.15625 3.375 8.53125 C 3.375 12.84375 2.1875 15.484375 0.390625 17.296875 C 0.375 17.328125 0.359375 17.34375 0.359375 17.375 C 0.359375 17.484375 0.453125 17.484375 0.546875 17.484375 C 0.671875 17.484375 0.703125 17.484375 0.78125 17.40625 C 1.734375 16.578125 2.796875 15.203125 3.484375 13.109375 C 3.921875 11.75 4.140625 10.140625 4.140625 8.53125 Z M 4.140625 8.53125 "/>
</g>
<g id="glyph-11-0">
<path d="M 0.5 -4.1875 L 0.578125 -4.1875 L 1.546875 -4.625 C 1.5625 -4.640625 1.5625 -4.640625 1.578125 -4.640625 C 1.625 -4.640625 1.640625 -4.5625 1.640625 -4.390625 L 1.640625 -0.71875 C 1.640625 -0.328125 1.546875 -0.25 1.140625 -0.21875 L 0.71875 -0.203125 L 0.71875 0.015625 C 1.890625 0 1.890625 0 1.96875 0 C 2.0625 0 2.234375 0 2.484375 0 C 2.578125 0.015625 2.84375 0.015625 3.15625 0.015625 L 3.15625 -0.203125 L 2.765625 -0.21875 C 2.34375 -0.25 2.265625 -0.328125 2.265625 -0.71875 L 2.265625 -5.203125 L 2.171875 -5.234375 C 1.671875 -4.984375 1.140625 -4.75 0.453125 -4.515625 Z M 0.5 -4.1875 "/>
</g>
<g id="glyph-12-0">
<path d="M 6.65625 -0.828125 L 6.5625 -0.9375 C 5.953125 -0.53125 5.265625 -0.34375 4.515625 -0.34375 C 2.578125 -0.34375 1.28125 -1.625 1.28125 -3.59375 C 1.28125 -5.421875 2.421875 -6.625 4.125 -6.625 C 5.09375 -6.625 6.109375 -6.234375 6.109375 -5.84375 L 6.109375 -5.125 L 6.40625 -5.125 C 6.421875 -5.625 6.453125 -5.984375 6.59375 -6.640625 C 5.75 -6.921875 5.03125 -7.046875 4.296875 -7.046875 C 3.4375 -7.046875 2.609375 -6.84375 1.953125 -6.453125 C 0.8125 -5.78125 0.21875 -4.734375 0.21875 -3.40625 C 0.21875 -1.25 1.78125 0.203125 4.125 0.203125 C 4.953125 0.203125 5.6875 0.015625 6.375 -0.34375 Z M 6.65625 -0.828125 "/>
</g>
<g id="glyph-12-1">
<path d="M 2.765625 -4.65625 C 1.328125 -4.65625 0.3125 -3.640625 0.3125 -2.15625 C 0.3125 -0.75 1.203125 0.203125 2.484375 0.203125 C 4.015625 0.203125 5.109375 -0.859375 5.109375 -2.359375 C 5.109375 -3.703125 4.140625 -4.65625 2.765625 -4.65625 Z M 2.59375 -4.328125 C 3.515625 -4.328125 4.1875 -3.34375 4.1875 -1.984375 C 4.1875 -0.84375 3.671875 -0.125 2.875 -0.125 C 1.890625 -0.125 1.25 -1.078125 1.25 -2.5 C 1.25 -3.6875 1.71875 -4.328125 2.59375 -4.328125 Z M 2.59375 -4.328125 "/>
</g>
<g id="glyph-12-2">
<path d="M 0.234375 -3.96875 L 0.59375 -3.96875 C 1 -3.96875 1.03125 -3.90625 1.03125 -3.25 L 1.03125 -1.015625 C 1.03125 -0.390625 1 -0.3125 0.671875 -0.296875 L 0.203125 -0.265625 L 0.203125 0.03125 C 0.921875 0.015625 1.1875 0 1.4375 0 C 1.625 0 1.625 0 2.859375 0.03125 L 2.859375 -0.265625 L 2.328125 -0.296875 C 1.890625 -0.328125 1.875 -0.359375 1.875 -1.015625 L 1.875 -2.71875 C 1.875 -3.3125 2.265625 -3.8125 2.75 -3.8125 C 3.046875 -3.8125 3.265625 -3.671875 3.421875 -3.359375 L 3.625 -3.359375 L 3.71875 -4.546875 C 3.609375 -4.625 3.421875 -4.65625 3.25 -4.65625 C 2.953125 -4.65625 2.640625 -4.5 2.421875 -4.25 L 1.875 -3.59375 L 1.875 -4.625 L 1.78125 -4.65625 C 1.265625 -4.453125 0.75 -4.3125 0.234375 -4.25 Z M 0.234375 -3.96875 "/>
</g>
<g id="glyph-12-3">
<path d="M 4.34375 -0.703125 L 4.21875 -0.796875 C 3.578125 -0.421875 3.34375 -0.328125 2.921875 -0.328125 C 2.28125 -0.328125 1.734375 -0.609375 1.453125 -1.109375 C 1.265625 -1.4375 1.203125 -1.703125 1.1875 -2.28125 L 2.640625 -2.28125 C 3.3125 -2.28125 3.75 -2.3125 4.4375 -2.421875 C 4.4375 -2.5625 4.453125 -2.65625 4.453125 -2.765625 C 4.453125 -3.921875 3.71875 -4.65625 2.609375 -4.65625 C 2.234375 -4.65625 1.8125 -4.53125 1.40625 -4.296875 C 0.59375 -3.828125 0.265625 -3.203125 0.265625 -2.171875 C 0.265625 -1.546875 0.40625 -1.015625 0.671875 -0.640625 C 1.078125 -0.109375 1.734375 0.203125 2.484375 0.203125 C 2.859375 0.203125 3.21875 0.125 3.625 -0.0625 C 3.890625 -0.171875 4.109375 -0.296875 4.140625 -0.359375 Z M 3.5625 -2.65625 C 3.046875 -2.640625 2.8125 -2.625 2.453125 -2.625 C 2 -2.625 1.734375 -2.640625 1.203125 -2.6875 C 1.203125 -3.15625 1.25 -3.375 1.375 -3.625 C 1.578125 -4.0625 2 -4.328125 2.484375 -4.328125 C 2.8125 -4.328125 3.078125 -4.203125 3.25 -3.9375 C 3.46875 -3.609375 3.53125 -3.3125 3.5625 -2.65625 Z M 3.5625 -2.65625 "/>
</g>
<g id="glyph-12-4">
<path d="M 3.96875 -3.09375 C 3.96875 -3.546875 4.015625 -3.953125 4.109375 -4.3125 C 3.703125 -4.546875 3.359375 -4.65625 2.953125 -4.65625 C 2.46875 -4.65625 1.921875 -4.46875 1.328125 -4.09375 C 0.625 -3.65625 0.265625 -2.96875 0.265625 -2.09375 C 0.265625 -0.75 1.203125 0.203125 2.53125 0.203125 C 3.046875 0.203125 3.796875 0.015625 3.890625 -0.140625 L 4.109375 -0.453125 L 4 -0.609375 C 3.640625 -0.40625 3.3125 -0.3125 2.96875 -0.3125 C 1.859375 -0.3125 1.140625 -1.171875 1.140625 -2.484375 C 1.140625 -3.546875 1.625 -4.140625 2.53125 -4.140625 C 2.96875 -4.140625 3.4375 -3.9375 3.625 -3.703125 L 3.6875 -3.09375 Z M 3.96875 -3.09375 "/>
</g>
<g id="glyph-12-5">
<path d="M 1.875 -4.625 L 1.78125 -4.65625 C 1.265625 -4.453125 0.75 -4.3125 0.234375 -4.25 L 0.234375 -3.96875 L 0.59375 -3.96875 C 1 -3.96875 1.03125 -3.90625 1.03125 -3.25 L 1.03125 -1.015625 C 1.03125 -0.390625 1 -0.3125 0.671875 -0.296875 L 0.203125 -0.265625 L 0.203125 0.03125 C 1.203125 0 1.203125 0 1.453125 0 C 1.703125 0 1.703125 0 2.6875 0.03125 L 2.6875 -0.265625 L 2.234375 -0.296875 C 1.890625 -0.3125 1.875 -0.390625 1.875 -1.015625 Z M 1.40625 -6.828125 C 1.109375 -6.828125 0.859375 -6.5625 0.859375 -6.265625 C 0.859375 -5.984375 1.109375 -5.71875 1.40625 -5.71875 C 1.6875 -5.71875 1.953125 -5.984375 1.953125 -6.265625 C 1.953125 -6.546875 1.6875 -6.828125 1.40625 -6.828125 Z M 1.40625 -6.828125 "/>
</g>
<g id="glyph-12-6">
<path d="M 2.765625 -4.65625 C 1.328125 -4.65625 0.3125 -3.640625 0.3125 -2.15625 C 0.3125 -0.75 1.203125 0.203125 2.484375 0.203125 C 4.015625 0.203125 5.109375 -0.859375 5.109375 -2.359375 C 5.109375 -3.703125 4.140625 -4.65625 2.765625 -4.65625 Z M 2.59375 -4.328125 C 3.515625 -4.328125 4.1875 -3.34375 4.1875 -1.984375 C 4.1875 -0.84375 3.671875 -0.125 2.875 -0.125 C 1.890625 -0.125 1.25 -1.078125 1.25 -2.5 C 1.25 -3.6875 1.71875 -4.328125 2.59375 -4.328125 Z M 1.78125 -5.03125 L 2.171875 -5.03125 L 3.609375 -5.921875 C 3.9375 -6.125 4 -6.21875 4 -6.390625 C 4 -6.578125 3.859375 -6.734375 3.703125 -6.734375 C 3.546875 -6.734375 3.375 -6.625 3.15625 -6.40625 Z M 1.78125 -5.03125 "/>
</g>
<g id="glyph-12-7">
<path d="M 4.078125 0.03125 C 4.6875 0 4.6875 0 4.859375 0 C 5 0 5 0 5.6875 0.03125 L 5.6875 -0.265625 L 5.28125 -0.296875 C 4.9375 -0.3125 4.90625 -0.375 4.90625 -1.015625 L 4.90625 -2.9375 C 4.90625 -4.09375 4.359375 -4.65625 3.25 -4.65625 C 2.875 -4.65625 2.671875 -4.59375 2.46875 -4.40625 L 1.703125 -3.75 L 1.703125 -4.625 L 1.625 -4.65625 C 1.109375 -4.453125 0.59375 -4.3125 0.0625 -4.25 L 0.0625 -3.96875 L 0.4375 -3.96875 C 0.828125 -3.96875 0.875 -3.90625 0.875 -3.25 L 0.875 -1.015625 C 0.875 -0.390625 0.84375 -0.3125 0.5 -0.296875 L 0.0625 -0.265625 L 0.0625 0.03125 C 0.734375 0.015625 1 0 1.296875 0 C 1.578125 0 1.84375 0.015625 2.53125 0.03125 L 2.53125 -0.265625 L 2.078125 -0.296875 C 1.734375 -0.3125 1.703125 -0.390625 1.703125 -1.015625 L 1.703125 -3.125 C 1.703125 -3.5625 2.359375 -4.046875 2.96875 -4.046875 C 3.640625 -4.046875 4.078125 -3.5625 4.078125 -2.796875 Z M 4.078125 0.03125 "/>
</g>
<g id="glyph-13-0">
<path d="M 4 -4.703125 C 4 -5.1875 4.03125 -5.484375 4.125 -5.96875 C 3.40625 -6.265625 3.015625 -6.34375 2.515625 -6.34375 C 1.1875 -6.34375 0.21875 -5.5 0.21875 -4.328125 C 0.21875 -3.890625 0.328125 -3.578125 0.59375 -3.328125 C 0.890625 -3.046875 1.3125 -2.90625 2.171875 -2.796875 C 2.859375 -2.6875 3.171875 -2.59375 3.40625 -2.390625 C 3.640625 -2.203125 3.75 -1.9375 3.75 -1.609375 C 3.75 -0.796875 3.078125 -0.21875 2.15625 -0.21875 C 1.4375 -0.21875 0.734375 -0.5625 0.6875 -0.9375 L 0.625 -1.53125 L 0.328125 -1.53125 C 0.34375 -1.375 0.34375 -1.234375 0.34375 -1.171875 C 0.34375 -0.765625 0.328125 -0.5625 0.265625 -0.15625 C 0.78125 0.0625 1.296875 0.171875 1.8125 0.171875 C 3.375 0.171875 4.5 -0.765625 4.5 -2.0625 C 4.5 -2.484375 4.390625 -2.78125 4.140625 -3.015625 C 3.828125 -3.296875 3.453125 -3.421875 2.4375 -3.546875 C 1.359375 -3.703125 0.96875 -4 0.96875 -4.6875 C 0.96875 -5.4375 1.53125 -5.96875 2.3125 -5.96875 C 2.671875 -5.96875 3 -5.90625 3.234375 -5.765625 C 3.53125 -5.609375 3.640625 -5.484375 3.65625 -5.21875 L 3.71875 -4.703125 Z M 4 -4.703125 "/>
</g>
<g id="glyph-13-1">
<path d="M 1.6875 -4.15625 L 1.609375 -4.203125 C 1.140625 -4.015625 0.6875 -3.890625 0.203125 -3.828125 L 0.203125 -3.578125 L 0.53125 -3.578125 C 0.890625 -3.578125 0.9375 -3.515625 0.9375 -2.921875 L 0.9375 -0.90625 C 0.9375 -0.34375 0.90625 -0.28125 0.59375 -0.265625 L 0.1875 -0.234375 L 0.1875 0.03125 C 1.078125 0 1.078125 0 1.3125 0 C 1.53125 0 1.53125 0 2.421875 0.03125 L 2.421875 -0.234375 L 2.015625 -0.265625 C 1.703125 -0.28125 1.6875 -0.34375 1.6875 -0.90625 Z M 1.265625 -6.15625 C 1 -6.15625 0.765625 -5.921875 0.765625 -5.65625 C 0.765625 -5.390625 1 -5.15625 1.265625 -5.15625 C 1.515625 -5.15625 1.765625 -5.390625 1.765625 -5.65625 C 1.765625 -5.90625 1.515625 -6.15625 1.265625 -6.15625 Z M 1.265625 -6.15625 "/>
</g>
<g id="glyph-13-2">
<path d="M 4.640625 -3.390625 L 4.875 -3.75 L 4.828125 -3.859375 L 3.5625 -3.828125 C 3.234375 -4.09375 2.90625 -4.203125 2.46875 -4.203125 C 2.078125 -4.203125 1.625 -4.078125 1.25 -3.859375 C 0.75 -3.578125 0.5 -3.140625 0.5 -2.59375 C 0.5 -1.921875 0.90625 -1.46875 1.5625 -1.390625 L 0.859375 -0.84375 C 0.765625 -0.71875 0.71875 -0.59375 0.71875 -0.46875 C 0.71875 -0.21875 0.890625 -0.078125 1.3125 0.046875 L 0.53125 0.46875 C 0.40625 0.546875 0.28125 0.875 0.28125 1.15625 C 0.28125 1.96875 1.078125 2.53125 2.21875 2.53125 C 3.578125 2.53125 4.640625 1.6875 4.640625 0.59375 C 4.640625 -0.046875 4.203125 -0.5 3.578125 -0.5 L 2.15625 -0.5 C 1.6875 -0.5 1.46875 -0.609375 1.46875 -0.84375 C 1.46875 -0.96875 1.546875 -1.0625 1.765625 -1.265625 C 1.828125 -1.3125 1.84375 -1.328125 1.875 -1.359375 C 1.96875 -1.359375 2.015625 -1.34375 2.09375 -1.34375 C 2.484375 -1.34375 2.953125 -1.515625 3.328125 -1.765625 C 3.71875 -2.0625 3.921875 -2.421875 3.921875 -2.90625 C 3.921875 -3.078125 3.890625 -3.203125 3.828125 -3.390625 Z M 2.15625 -3.890625 C 2.75 -3.890625 3.171875 -3.390625 3.171875 -2.625 C 3.171875 -2.046875 2.796875 -1.640625 2.25 -1.640625 C 1.640625 -1.640625 1.25 -2.109375 1.25 -2.796875 C 1.25 -3.484375 1.578125 -3.890625 2.15625 -3.890625 Z M 2.5625 0.125 C 3.578125 0.125 3.9375 0.328125 3.9375 0.90625 C 3.9375 1.6875 3.21875 2.25 2.28125 2.25 C 1.5 2.25 0.96875 1.796875 0.96875 1.140625 C 0.96875 0.734375 1.203125 0.359375 1.5625 0.21875 C 1.703125 0.140625 1.953125 0.125 2.5625 0.125 Z M 2.5625 0.125 "/>
</g>
<g id="glyph-13-3">
<path d="M 4.5 -4.15625 L 4.421875 -4.203125 C 3.96875 -4.015625 3.5 -3.890625 3.03125 -3.828125 L 3.03125 -3.578125 L 3.359375 -3.578125 C 3.71875 -3.578125 3.75 -3.515625 3.75 -2.921875 L 3.75 -1.46875 C 3.75 -1.265625 3.625 -1.015625 3.421875 -0.8125 C 3.171875 -0.5625 2.890625 -0.4375 2.53125 -0.4375 C 2.21875 -0.4375 1.96875 -0.53125 1.828125 -0.703125 C 1.703125 -0.84375 1.640625 -1.125 1.640625 -1.515625 L 1.640625 -4.15625 L 1.5625 -4.203125 C 1.09375 -4.015625 0.640625 -3.890625 0.15625 -3.828125 L 0.15625 -3.578125 L 0.5 -3.578125 C 0.84375 -3.578125 0.890625 -3.515625 0.890625 -2.921875 L 0.890625 -1.421875 C 0.890625 -0.796875 0.9375 -0.515625 1.09375 -0.296875 C 1.296875 -0.03125 1.640625 0.109375 2.15625 0.109375 C 2.546875 0.109375 2.90625 -0.015625 3.15625 -0.234375 L 3.75 -0.796875 C 3.75 -0.53125 3.75 -0.390625 3.71875 0.03125 C 4.3125 0 4.328125 0 4.453125 0 C 4.578125 0 4.578125 0 5.203125 0.03125 L 5.203125 -0.234375 L 4.828125 -0.265625 C 4.53125 -0.28125 4.5 -0.34375 4.5 -0.90625 Z M 4.5 -4.15625 "/>
</g>
<g id="glyph-13-4">
<path d="M 3.90625 -0.625 L 3.796875 -0.71875 C 3.21875 -0.375 3.015625 -0.296875 2.625 -0.296875 C 2.046875 -0.296875 1.5625 -0.5625 1.3125 -1 C 1.140625 -1.296875 1.078125 -1.546875 1.0625 -2.0625 L 2.375 -2.0625 C 2.984375 -2.0625 3.375 -2.09375 4 -2.1875 C 4 -2.3125 4.015625 -2.390625 4.015625 -2.5 C 4.015625 -3.53125 3.34375 -4.203125 2.34375 -4.203125 C 2.015625 -4.203125 1.625 -4.078125 1.265625 -3.875 C 0.53125 -3.453125 0.234375 -2.890625 0.234375 -1.953125 C 0.234375 -1.390625 0.359375 -0.90625 0.609375 -0.578125 C 0.96875 -0.09375 1.5625 0.171875 2.234375 0.171875 C 2.5625 0.171875 2.90625 0.109375 3.265625 -0.046875 C 3.515625 -0.15625 3.703125 -0.265625 3.734375 -0.328125 Z M 3.21875 -2.390625 C 2.75 -2.375 2.53125 -2.359375 2.21875 -2.359375 C 1.796875 -2.359375 1.5625 -2.375 1.078125 -2.421875 C 1.078125 -2.84375 1.125 -3.03125 1.234375 -3.265625 C 1.421875 -3.65625 1.8125 -3.90625 2.234375 -3.90625 C 2.53125 -3.90625 2.765625 -3.78125 2.921875 -3.546875 C 3.125 -3.25 3.1875 -2.984375 3.21875 -2.390625 Z M 3.21875 -2.390625 "/>
</g>
<g id="glyph-13-5">
<path d="M 3.671875 0.03125 C 4.21875 0 4.21875 0 4.375 0 C 4.5 0 4.5 0 5.125 0.03125 L 5.125 -0.234375 L 4.75 -0.265625 C 4.453125 -0.28125 4.421875 -0.34375 4.421875 -0.90625 L 4.421875 -2.640625 C 4.421875 -3.6875 3.9375 -4.203125 2.921875 -4.203125 C 2.59375 -4.203125 2.40625 -4.140625 2.21875 -3.96875 L 1.546875 -3.390625 L 1.546875 -4.15625 L 1.453125 -4.203125 C 1 -4.015625 0.53125 -3.890625 0.0625 -3.828125 L 0.0625 -3.578125 L 0.390625 -3.578125 C 0.75 -3.578125 0.78125 -3.515625 0.78125 -2.921875 L 0.78125 -0.90625 C 0.78125 -0.34375 0.765625 -0.28125 0.453125 -0.265625 L 0.046875 -0.234375 L 0.046875 0.03125 C 0.65625 0.015625 0.90625 0 1.15625 0 C 1.421875 0 1.671875 0.015625 2.28125 0.03125 L 2.28125 -0.234375 L 1.875 -0.265625 C 1.5625 -0.28125 1.546875 -0.34375 1.546875 -0.90625 L 1.546875 -2.8125 C 1.546875 -3.21875 2.125 -3.65625 2.671875 -3.65625 C 3.28125 -3.65625 3.671875 -3.203125 3.671875 -2.515625 Z M 3.671875 0.03125 "/>
</g>
<g id="glyph-13-6">
<path d="M 0.875 -3.421875 L 0.875 -0.84375 C 0.875 -0.171875 1.171875 0.109375 1.859375 0.109375 C 2.0625 0.109375 2.28125 0.0625 2.34375 0 L 2.765625 -0.46875 L 2.65625 -0.625 C 2.421875 -0.5 2.296875 -0.453125 2.125 -0.453125 C 1.765625 -0.453125 1.625 -0.640625 1.625 -1.078125 L 1.625 -3.421875 L 2.78125 -3.421875 L 2.859375 -3.90625 L 1.625 -3.84375 L 1.625 -4.1875 C 1.625 -4.5625 1.65625 -4.890625 1.734375 -5.46875 L 1.625 -5.5625 C 1.40625 -5.421875 1.140625 -5.3125 0.859375 -5.21875 C 0.890625 -4.953125 0.890625 -4.78125 0.890625 -4.515625 L 0.890625 -3.890625 L 0.203125 -3.578125 L 0.203125 -3.390625 Z M 0.875 -3.421875 "/>
</g>
<g id="glyph-13-7">
<path d="M 0.203125 -3.578125 L 0.53125 -3.578125 C 0.890625 -3.578125 0.9375 -3.515625 0.9375 -2.921875 L 0.9375 -0.90625 C 0.9375 -0.34375 0.90625 -0.28125 0.59375 -0.265625 L 0.1875 -0.234375 L 0.1875 0.03125 C 0.828125 0.015625 1.0625 0 1.296875 0 C 1.46875 0 1.46875 0 2.5625 0.03125 L 2.5625 -0.234375 L 2.109375 -0.265625 C 1.703125 -0.296875 1.6875 -0.328125 1.6875 -0.90625 L 1.6875 -2.453125 C 1.6875 -2.984375 2.046875 -3.4375 2.484375 -3.4375 C 2.75 -3.4375 2.9375 -3.3125 3.078125 -3.03125 L 3.265625 -3.03125 L 3.34375 -4.09375 C 3.25 -4.15625 3.09375 -4.203125 2.921875 -4.203125 C 2.65625 -4.203125 2.375 -4.0625 2.1875 -3.828125 L 1.6875 -3.234375 L 1.6875 -4.15625 L 1.609375 -4.203125 C 1.140625 -4.015625 0.6875 -3.890625 0.203125 -3.828125 Z M 0.203125 -3.578125 "/>
</g>
<g id="glyph-13-8">
<path d="M 2.90625 -0.734375 L 2.859375 0.03125 C 3.4375 0 3.4375 0 3.546875 0 C 3.59375 0 3.828125 0.015625 4.21875 0.03125 L 4.21875 -0.234375 L 3.875 -0.265625 C 3.65625 -0.265625 3.609375 -0.34375 3.609375 -0.78125 L 3.609375 -2.421875 C 3.609375 -3.71875 3.234375 -4.203125 2.203125 -4.203125 C 1.8125 -4.203125 1.453125 -4.09375 1.125 -3.890625 L 0.640625 -3.609375 L 0.640625 -3.03125 L 0.875 -2.96875 L 1 -3.234375 C 1.1875 -3.65625 1.265625 -3.71875 1.6875 -3.71875 C 2.53125 -3.71875 2.875 -3.390625 2.90625 -2.578125 L 2.015625 -2.421875 C 0.796875 -2.1875 0.28125 -1.765625 0.28125 -1 C 0.28125 -0.296875 0.703125 0.109375 1.421875 0.109375 C 1.578125 0.109375 1.734375 0.078125 1.796875 0.03125 Z M 2.90625 -1.109375 C 2.640625 -0.75 2.078125 -0.40625 1.734375 -0.40625 C 1.375 -0.40625 1.0625 -0.734375 1.0625 -1.125 C 1.0625 -1.453125 1.234375 -1.765625 1.5 -1.9375 C 1.734375 -2.0625 2.21875 -2.1875 2.90625 -2.296875 Z M 2.90625 -1.109375 "/>
</g>
<g id="glyph-13-9">
<path d="M 3.578125 -2.78125 C 3.578125 -3.203125 3.609375 -3.5625 3.703125 -3.890625 C 3.34375 -4.09375 3.03125 -4.203125 2.65625 -4.203125 C 2.234375 -4.203125 1.734375 -4.03125 1.1875 -3.6875 C 0.5625 -3.296875 0.234375 -2.671875 0.234375 -1.875 C 0.234375 -0.671875 1.078125 0.171875 2.28125 0.171875 C 2.75 0.171875 3.421875 0.015625 3.515625 -0.125 L 3.703125 -0.40625 L 3.609375 -0.546875 C 3.28125 -0.359375 2.984375 -0.28125 2.671875 -0.28125 C 1.671875 -0.28125 1.015625 -1.0625 1.015625 -2.234375 C 1.015625 -3.203125 1.46875 -3.734375 2.28125 -3.734375 C 2.671875 -3.734375 3.09375 -3.546875 3.265625 -3.328125 L 3.328125 -2.78125 Z M 3.578125 -2.78125 "/>
</g>
<g id="glyph-13-10">
<path d="M 2.5 -4.203125 C 1.1875 -4.203125 0.28125 -3.28125 0.28125 -1.9375 C 0.28125 -0.6875 1.078125 0.171875 2.234375 0.171875 C 3.609375 0.171875 4.609375 -0.78125 4.609375 -2.125 C 4.609375 -3.328125 3.71875 -4.203125 2.5 -4.203125 Z M 2.34375 -3.90625 C 3.15625 -3.90625 3.765625 -3.015625 3.765625 -1.796875 C 3.765625 -0.765625 3.3125 -0.109375 2.59375 -0.109375 C 1.703125 -0.109375 1.125 -0.96875 1.125 -2.25 C 1.125 -3.328125 1.546875 -3.90625 2.34375 -3.90625 Z M 1.609375 -4.53125 L 1.953125 -4.53125 L 3.25 -5.34375 C 3.546875 -5.53125 3.609375 -5.59375 3.609375 -5.75 C 3.609375 -5.921875 3.484375 -6.0625 3.328125 -6.0625 C 3.203125 -6.0625 3.03125 -5.96875 2.84375 -5.765625 Z M 1.609375 -4.53125 "/>
</g>
</g>
<clipPath id="clip-0">
<path clip-rule="nonzero" d="M 90 0 L 287.085938 0 L 287.085938 35 L 90 35 Z M 90 0 "/>
</clipPath>
<clipPath id="clip-1">
<path clip-rule="nonzero" d="M 90 46 L 287.085938 46 L 287.085938 92 L 90 92 Z M 90 46 "/>
</clipPath>
<clipPath id="clip-2">
<path clip-rule="nonzero" d="M 90 103 L 287.085938 103 L 287.085938 152 L 90 152 Z M 90 103 "/>
</clipPath>
<clipPath id="clip-3">
<path clip-rule="nonzero" d="M 90 162 L 287.085938 162 L 287.085938 197.089844 L 90 197.089844 Z M 90 162 "/>
</clipPath>
</defs>
<path fill-rule="nonzero" fill="rgb(100%, 94.999695%, 89.99939%)" fill-opacity="1" d="M 282.914062 0.199219 L 99.78125 0.199219 C 97.585938 0.199219 95.804688 1.980469 95.804688 4.175781 L 95.804688 25.335938 C 95.804688 27.53125 97.585938 29.3125 99.78125 29.3125 L 282.914062 29.3125 C 285.109375 29.3125 286.890625 27.53125 286.890625 25.335938 L 286.890625 4.175781 C 286.890625 1.980469 285.109375 0.199219 282.914062 0.199219 Z M 282.914062 0.199219 "/>
<g clip-path="url(#clip-0)">
<path fill="none" stroke-width="0.3985" stroke-linecap="butt" stroke-linejoin="miter" stroke="rgb(0%, 0%, 0%)" stroke-opacity="1" stroke-miterlimit="10" d="M 91.778172 14.589321 L -91.777374 14.589321 C -93.977754 14.589321 -95.763116 12.80396 -95.763116 10.60358 L -95.763116 -10.605422 C -95.763116 -12.805802 -93.977754 -14.591163 -91.777374 -14.591163 L 91.778172 -14.591163 C 93.978552 -14.591163 95.763914 -12.805802 95.763914 -10.605422 L 95.763914 10.60358 C 95.763914 12.80396 93.978552 14.589321 91.778172 14.589321 Z M 91.778172 14.589321 " transform="matrix(0.997697, 0, 0, -0.997697, 191.347258, 14.75494)"/>
</g>
<g fill="rgb(0%, 0%, 0%)" fill-opacity="1">
<use xlink:href="#glyph-0-0" x="158.77345" y="11.007591"/>
<use xlink:href="#glyph-0-1" x="163.743278" y="11.007591"/>
</g>
<g fill="rgb(0%, 0%, 0%)" fill-opacity="1">
<use xlink:href="#glyph-0-2" x="169.538097" y="11.007591"/>
<use xlink:href="#glyph-0-3" x="175.611227" y="11.007591"/>
<use xlink:href="#glyph-0-4" x="178.921132" y="11.007591"/>
<use xlink:href="#glyph-0-5" x="187.757486" y="11.007591"/>
<use xlink:href="#glyph-0-6" x="193.830616" y="11.007591"/>
<use xlink:href="#glyph-0-7" x="197.140521" y="11.007591"/>
<use xlink:href="#glyph-0-8" x="202.110349" y="11.007591"/>
<use xlink:href="#glyph-0-3" x="206.523557" y="11.007591"/>
<use xlink:href="#glyph-0-9" x="209.833462" y="11.007591"/>
<use xlink:href="#glyph-0-10" x="215.359911" y="11.007591"/>
<use xlink:href="#glyph-0-11" x="221.43304" y="11.007591"/>
</g>
<g fill="rgb(0%, 0%, 0%)" fill-opacity="1">
<use xlink:href="#glyph-1-0" x="163.690101" y="22.935058"/>
</g>
<g fill="rgb(0%, 0%, 0%)" fill-opacity="1">
<use xlink:href="#glyph-2-0" x="169.43484" y="19.327386"/>
</g>
<g fill="rgb(0%, 0%, 0%)" fill-opacity="1">
<use xlink:href="#glyph-3-0" x="172.677339" y="19.327386"/>
</g>
<g fill="rgb(0%, 0%, 0%)" fill-opacity="1">
<use xlink:href="#glyph-2-1" x="176.259658" y="19.327386"/>
</g>
<g fill="rgb(0%, 0%, 0%)" fill-opacity="1">
<use xlink:href="#glyph-4-0" x="183.737824" y="22.935058"/>
</g>
<g fill="rgb(0%, 0%, 0%)" fill-opacity="1">
<use xlink:href="#glyph-1-1" x="193.429023" y="22.935058"/>
</g>
<g fill="rgb(0%, 0%, 0%)" fill-opacity="1">
<use xlink:href="#glyph-5-0" x="202.355299" y="22.935058"/>
</g>
<g fill="rgb(0%, 0%, 0%)" fill-opacity="1">
<use xlink:href="#glyph-6-0" x="214.367105" y="22.935058"/>
</g>
<path fill-rule="nonzero" fill="rgb(100%, 94.999695%, 89.99939%)" fill-opacity="1" d="M 282.914062 52.335938 L 99.78125 52.335938 C 97.585938 52.335938 95.804688 54.113281 95.804688 56.308594 L 95.804688 81.957031 C 95.804688 84.152344 97.585938 85.929688 99.78125 85.929688 L 282.914062 85.929688 C 285.109375 85.929688 286.890625 84.152344 286.890625 81.957031 L 286.890625 56.308594 C 286.890625 54.113281 285.109375 52.335938 282.914062 52.335938 Z M 282.914062 52.335938 "/>
<g clip-path="url(#clip-1)">
<path fill="none" stroke-width="0.3985" stroke-linecap="butt" stroke-linejoin="miter" stroke="rgb(0%, 0%, 0%)" stroke-opacity="1" stroke-miterlimit="10" d="M 91.778172 -37.667747 L -91.777374 -37.667747 C -93.977754 -37.667747 -95.763116 -39.449193 -95.763116 -41.649573 L -95.763116 -67.357216 C -95.763116 -69.557597 -93.977754 -71.339043 -91.777374 -71.339043 L 91.778172 -71.339043 C 93.978552 -71.339043 95.763914 -69.557597 95.763914 -67.357216 L 95.763914 -41.649573 C 95.763914 -39.449193 93.978552 -37.667747 91.778172 -37.667747 Z M 91.778172 -37.667747 " transform="matrix(0.997697, 0, 0, -0.997697, 191.347258, 14.75494)"/>
</g>
<g fill="rgb(0%, 0%, 0%)" fill-opacity="1">
<use xlink:href="#glyph-0-12" x="147.733933" y="63.143244"/>
<use xlink:href="#glyph-0-1" x="152.703761" y="63.143244"/>
</g>
<g fill="rgb(0%, 0%, 0%)" fill-opacity="1">
<use xlink:href="#glyph-0-13" x="158.49858" y="63.143244"/>
<use xlink:href="#glyph-0-14" x="165.675012" y="63.143244"/>
<use xlink:href="#glyph-0-8" x="171.20146" y="63.143244"/>
<use xlink:href="#glyph-0-3" x="175.614668" y="63.143244"/>
<use xlink:href="#glyph-0-15" x="178.924573" y="63.143244"/>
<use xlink:href="#glyph-0-10" x="183.894401" y="63.143244"/>
<use xlink:href="#glyph-0-16" x="189.967531" y="63.143244"/>
<use xlink:href="#glyph-0-15" x="193.277436" y="63.143244"/>
</g>
<g fill="rgb(0%, 0%, 0%)" fill-opacity="1">
<use xlink:href="#glyph-0-15" x="201.567109" y="63.143244"/>
<use xlink:href="#glyph-0-17" x="206.536937" y="63.143244"/>
<use xlink:href="#glyph-0-8" x="210.950144" y="63.143244"/>
<use xlink:href="#glyph-0-7" x="215.363351" y="63.143244"/>
<use xlink:href="#glyph-0-6" x="220.333179" y="63.143244"/>
<use xlink:href="#glyph-0-7" x="223.643085" y="63.143244"/>
<use xlink:href="#glyph-0-18" x="228.612912" y="63.143244"/>
<use xlink:href="#glyph-0-11" x="232.479439" y="63.143244"/>
</g>
<g fill="rgb(0%, 0%, 0%)" fill-opacity="1">
<use xlink:href="#glyph-3-1" x="185.091698" y="70.189977"/>
</g>
<g fill="rgb(0%, 0%, 0%)" fill-opacity="1">
<use xlink:href="#glyph-7-0" x="189.03759" y="71.932954"/>
</g>
<g fill="rgb(0%, 0%, 0%)" fill-opacity="1">
<use xlink:href="#glyph-7-1" x="191.894266" y="71.932954"/>
</g>
<g fill="rgb(0%, 0%, 0%)" fill-opacity="1">
<use xlink:href="#glyph-7-2" x="194.804617" y="71.932954"/>
</g>
<path fill="none" stroke-width="0.398" stroke-linecap="butt" stroke-linejoin="miter" stroke="rgb(0%, 0%, 0%)" stroke-opacity="1" stroke-miterlimit="10" d="M 0.000804747 -0.000490994 L 21.385993 -0.000490994 " transform="matrix(0.997697, 0, 0, -0.997697, 180.678885, 72.585448)"/>
<g fill="rgb(0%, 0%, 0%)" fill-opacity="1">
<use xlink:href="#glyph-3-2" x="180.773666" y="80.214836"/>
</g>
<g fill="rgb(0%, 0%, 0%)" fill-opacity="1">
<use xlink:href="#glyph-8-0" x="185.142581" y="77.845306"/>
</g>
<g fill="rgb(0%, 0%, 0%)" fill-opacity="1">
<use xlink:href="#glyph-7-3" x="187.702437" y="77.845306"/>
</g>
<g fill="rgb(0%, 0%, 0%)" fill-opacity="1">
<use xlink:href="#glyph-8-1" x="190.530592" y="77.845306"/>
</g>
<g fill="rgb(0%, 0%, 0%)" fill-opacity="1">
<use xlink:href="#glyph-9-0" x="193.603051" y="80.214836"/>
</g>
<g fill="rgb(0%, 0%, 0%)" fill-opacity="1">
<use xlink:href="#glyph-3-3" x="198.143099" y="80.214836"/>
</g>
<path fill-rule="nonzero" fill="rgb(100%, 94.999695%, 89.99939%)" fill-opacity="1" d="M 282.914062 108.953125 L 99.78125 108.953125 C 97.585938 108.953125 95.804688 110.734375 95.804688 112.929688 L 95.804688 141.613281 C 95.804688 143.808594 97.585938 145.589844 99.78125 145.589844 L 282.914062 145.589844 C 285.109375 145.589844 286.890625 143.808594 286.890625 141.613281 L 286.890625 112.929688 C 286.890625 110.734375 285.109375 108.953125 282.914062 108.953125 Z M 282.914062 108.953125 "/>
<g clip-path="url(#clip-2)">
<path fill="none" stroke-width="0.3985" stroke-linecap="butt" stroke-linejoin="miter" stroke="rgb(0%, 0%, 0%)" stroke-opacity="1" stroke-miterlimit="10" d="M 91.778172 -94.415627 L -91.777374 -94.415627 C -93.977754 -94.415627 -95.763116 -96.200988 -95.763116 -98.401368 L -95.763116 -127.151174 C -95.763116 -129.351554 -93.977754 -131.136916 -91.777374 -131.136916 L 91.778172 -131.136916 C 93.978552 -131.136916 95.763914 -129.351554 95.763914 -127.151174 L 95.763914 -98.401368 C 95.763914 -96.200988 93.978552 -94.415627 91.778172 -94.415627 Z M 91.778172 -94.415627 " transform="matrix(0.997697, 0, 0, -0.997697, 191.347258, 14.75494)"/>
</g>
<g fill="rgb(0%, 0%, 0%)" fill-opacity="1">
<use xlink:href="#glyph-0-19" x="140.279141" y="119.762547"/>
<use xlink:href="#glyph-0-1" x="145.248969" y="119.762547"/>
</g>
<g fill="rgb(0%, 0%, 0%)" fill-opacity="1">
<use xlink:href="#glyph-0-13" x="151.043788" y="119.762547"/>
<use xlink:href="#glyph-0-14" x="158.22022" y="119.762547"/>
<use xlink:href="#glyph-0-18" x="163.746669" y="119.762547"/>
<use xlink:href="#glyph-0-18" x="167.613195" y="119.762547"/>
<use xlink:href="#glyph-0-15" x="171.479721" y="119.762547"/>
<use xlink:href="#glyph-0-8" x="176.449549" y="119.762547"/>
<use xlink:href="#glyph-0-8" x="180.862756" y="119.762547"/>
<use xlink:href="#glyph-0-3" x="185.275963" y="119.762547"/>
<use xlink:href="#glyph-0-9" x="188.585869" y="119.762547"/>
<use xlink:href="#glyph-0-10" x="194.112317" y="119.762547"/>
</g>
<g fill="rgb(0%, 0%, 0%)" fill-opacity="1">
<use xlink:href="#glyph-0-15" x="203.505292" y="119.762547"/>
<use xlink:href="#glyph-0-17" x="208.47512" y="119.762547"/>
<use xlink:href="#glyph-0-20" x="212.888327" y="119.762547"/>
<use xlink:href="#glyph-0-7" x="218.961457" y="119.762547"/>
<use xlink:href="#glyph-0-8" x="223.931285" y="119.762547"/>
<use xlink:href="#glyph-0-3" x="228.344492" y="119.762547"/>
<use xlink:href="#glyph-0-7" x="231.654397" y="119.762547"/>
<use xlink:href="#glyph-0-6" x="236.624225" y="119.762547"/>
<use xlink:href="#glyph-0-11" x="239.934131" y="119.762547"/>
</g>
<g fill="rgb(0%, 0%, 0%)" fill-opacity="1">
<use xlink:href="#glyph-10-0" x="161.858329" y="123.688484"/>
</g>
<g fill="rgb(0%, 0%, 0%)" fill-opacity="1">
<use xlink:href="#glyph-3-1" x="173.522404" y="129.845272"/>
</g>
<g fill="rgb(0%, 0%, 0%)" fill-opacity="1">
<use xlink:href="#glyph-7-0" x="177.468296" y="131.588249"/>
</g>
<g fill="rgb(0%, 0%, 0%)" fill-opacity="1">
<use xlink:href="#glyph-7-1" x="180.324972" y="131.588249"/>
</g>
<g fill="rgb(0%, 0%, 0%)" fill-opacity="1">
<use xlink:href="#glyph-7-2" x="183.235323" y="131.588249"/>
</g>
<path fill="none" stroke-width="0.398" stroke-linecap="butt" stroke-linejoin="miter" stroke="rgb(0%, 0%, 0%)" stroke-opacity="1" stroke-miterlimit="10" d="M -0.000216043 -0.00044829 L 21.384972 -0.00044829 " transform="matrix(0.997697, 0, 0, -0.997697, 169.109591, 132.24174)"/>
<g fill="rgb(0%, 0%, 0%)" fill-opacity="1">
<use xlink:href="#glyph-3-2" x="169.203374" y="139.870131"/>
</g>
<g fill="rgb(0%, 0%, 0%)" fill-opacity="1">
<use xlink:href="#glyph-8-0" x="173.573287" y="137.501599"/>
</g>
<g fill="rgb(0%, 0%, 0%)" fill-opacity="1">
<use xlink:href="#glyph-7-3" x="176.133143" y="137.501599"/>
</g>
<g fill="rgb(0%, 0%, 0%)" fill-opacity="1">
<use xlink:href="#glyph-8-1" x="178.955084" y="137.501599"/>
</g>
<g fill="rgb(0%, 0%, 0%)" fill-opacity="1">
<use xlink:href="#glyph-9-0" x="182.033757" y="139.870131"/>
</g>
<g fill="rgb(0%, 0%, 0%)" fill-opacity="1">
<use xlink:href="#glyph-3-3" x="186.573805" y="139.870131"/>
</g>
<g fill="rgb(0%, 0%, 0%)" fill-opacity="1">
<use xlink:href="#glyph-10-1" x="191.7623" y="123.688484"/>
</g>
<g fill="rgb(0%, 0%, 0%)" fill-opacity="1">
<use xlink:href="#glyph-4-0" x="201.607574" y="134.726006"/>
</g>
<g fill="rgb(0%, 0%, 0%)" fill-opacity="1">
<use xlink:href="#glyph-1-1" x="211.249075" y="134.726006"/>
</g>
<g fill="rgb(0%, 0%, 0%)" fill-opacity="1">
<use xlink:href="#glyph-9-0" x="216.433351" y="131.118333"/>
</g>
<path fill-rule="nonzero" fill="rgb(100%, 94.999695%, 89.99939%)" fill-opacity="1" d="M 282.914062 168.609375 L 99.78125 168.609375 C 97.585938 168.609375 95.804688 170.390625 95.804688 172.585938 L 95.804688 192.917969 C 95.804688 195.113281 97.585938 196.890625 99.78125 196.890625 L 282.914062 196.890625 C 285.109375 196.890625 286.890625 195.113281 286.890625 192.917969 L 286.890625 172.585938 C 286.890625 170.390625 285.109375 168.609375 282.914062 168.609375 Z M 282.914062 168.609375 "/>
<g clip-path="url(#clip-3)">
<path fill="none" stroke-width="0.3985" stroke-linecap="butt" stroke-linejoin="miter" stroke="rgb(0%, 0%, 0%)" stroke-opacity="1" stroke-miterlimit="10" d="M 91.778172 -154.209584 L -91.777374 -154.209584 C -93.977754 -154.209584 -95.763116 -155.994946 -95.763116 -158.195326 L -95.763116 -178.57429 C -95.763116 -180.77467 -93.977754 -182.556117 -91.777374 -182.556117 L 91.778172 -182.556117 C 93.978552 -182.556117 95.763914 -180.77467 95.763914 -178.57429 L 95.763914 -158.195326 C 95.763914 -155.994946 93.978552 -154.209584 91.778172 -154.209584 Z M 91.778172 -154.209584 " transform="matrix(0.997697, 0, 0, -0.997697, 191.347258, 14.75494)"/>
</g>
<g fill="rgb(0%, 0%, 0%)" fill-opacity="1">
<use xlink:href="#glyph-0-21" x="153.530552" y="180.269875"/>
<use xlink:href="#glyph-0-1" x="158.50038" y="180.269875"/>
</g>
<g fill="rgb(0%, 0%, 0%)" fill-opacity="1">
<use xlink:href="#glyph-0-22" x="164.2952" y="180.269875"/>
<use xlink:href="#glyph-0-8" x="172.028252" y="180.269875"/>
<use xlink:href="#glyph-0-16" x="176.441459" y="180.269875"/>
<use xlink:href="#glyph-0-5" x="179.751364" y="180.269875"/>
<use xlink:href="#glyph-0-7" x="185.824494" y="180.269875"/>
<use xlink:href="#glyph-0-6" x="190.794322" y="180.269875"/>
<use xlink:href="#glyph-0-3" x="194.104227" y="180.269875"/>
<use xlink:href="#glyph-0-23" x="197.414133" y="180.269875"/>
<use xlink:href="#glyph-0-7" x="202.383961" y="180.269875"/>
<use xlink:href="#glyph-0-8" x="207.353789" y="180.269875"/>
<use xlink:href="#glyph-0-3" x="211.766996" y="180.269875"/>
<use xlink:href="#glyph-0-9" x="215.076901" y="180.269875"/>
<use xlink:href="#glyph-0-10" x="220.60335" y="180.269875"/>
<use xlink:href="#glyph-0-11" x="226.67648" y="180.269875"/>
</g>
<g fill="rgb(0%, 0%, 0%)" fill-opacity="1">
<use xlink:href="#glyph-1-0" x="130.59749" y="192.197342"/>
</g>
<g fill="rgb(0%, 0%, 0%)" fill-opacity="1">
<use xlink:href="#glyph-2-0" x="136.343227" y="188.58967"/>
</g>
<g fill="rgb(0%, 0%, 0%)" fill-opacity="1">
<use xlink:href="#glyph-3-0" x="139.585726" y="188.58967"/>
</g>
<g fill="rgb(0%, 0%, 0%)" fill-opacity="1">
<use xlink:href="#glyph-2-2" x="143.168045" y="188.58967"/>
</g>
<g fill="rgb(0%, 0%, 0%)" fill-opacity="1">
<use xlink:href="#glyph-11-0" x="149.381093" y="188.58967"/>
</g>
<g fill="rgb(0%, 0%, 0%)" fill-opacity="1">
<use xlink:href="#glyph-2-1" x="153.252632" y="188.58967"/>
</g>
<g fill="rgb(0%, 0%, 0%)" fill-opacity="1">
<use xlink:href="#glyph-5-1" x="164.089179" y="192.197342"/>
</g>
<g fill="rgb(0%, 0%, 0%)" fill-opacity="1">
<use xlink:href="#glyph-1-0" x="179.46059" y="192.197342"/>
</g>
<g fill="rgb(0%, 0%, 0%)" fill-opacity="1">
<use xlink:href="#glyph-2-0" x="185.205436" y="188.58967"/>
</g>
<g fill="rgb(0%, 0%, 0%)" fill-opacity="1">
<use xlink:href="#glyph-3-0" x="188.447935" y="188.58967"/>
</g>
<g fill="rgb(0%, 0%, 0%)" fill-opacity="1">
<use xlink:href="#glyph-2-1" x="192.030254" y="188.58967"/>
</g>
<g fill="rgb(0%, 0%, 0%)" fill-opacity="1">
<use xlink:href="#glyph-4-1" x="198.589541" y="192.197342"/>
</g>
<g fill="rgb(0%, 0%, 0%)" fill-opacity="1">
<use xlink:href="#glyph-12-0" x="204.379088" y="192.197342"/>
<use xlink:href="#glyph-12-1" x="211.426304" y="192.197342"/>
<use xlink:href="#glyph-12-2" x="216.853356" y="192.197342"/>
<use xlink:href="#glyph-12-2" x="220.77952" y="192.197342"/>
</g>
<g fill="rgb(0%, 0%, 0%)" fill-opacity="1">
<use xlink:href="#glyph-12-3" x="224.52677" y="192.197342"/>
<use xlink:href="#glyph-12-4" x="229.287865" y="192.197342"/>
<use xlink:href="#glyph-12-4" x="233.701072" y="192.197342"/>
<use xlink:href="#glyph-12-5" x="238.11428" y="192.197342"/>
<use xlink:href="#glyph-12-6" x="241.006719" y="192.197342"/>
<use xlink:href="#glyph-12-7" x="246.433772" y="192.197342"/>
</g>
<path fill="none" stroke-width="0.79701" stroke-linecap="butt" stroke-linejoin="miter" stroke="rgb(0%, 0%, 0%)" stroke-opacity="1" stroke-miterlimit="10" d="M 0.000398866 -14.790842 L 0.000398866 -33.357038 " transform="matrix(0.997697, 0, 0, -0.997697, 191.347258, 14.75494)"/>
<path fill-rule="nonzero" fill="rgb(0%, 0%, 0%)" fill-opacity="1" stroke-width="0.79701" stroke-linecap="butt" stroke-linejoin="miter" stroke="rgb(0%, 0%, 0%)" stroke-opacity="1" stroke-miterlimit="10" d="M 5.441241 0.000398866 L 1.287143 1.570421 L 2.665317 0.000398866 L 1.287143 -1.569623 Z M 5.441241 0.000398866 " transform="matrix(0, 0.997697, 0.997697, 0, 191.347258, 45.575197)"/>
<path fill="none" stroke-width="0.79701" stroke-linecap="butt" stroke-linejoin="miter" stroke="rgb(0%, 0%, 0%)" stroke-opacity="1" stroke-miterlimit="10" d="M 0.000398866 -71.538722 L 0.000398866 -90.108833 " transform="matrix(0.997697, 0, 0, -0.997697, 191.347258, 14.75494)"/>
<path fill-rule="nonzero" fill="rgb(0%, 0%, 0%)" fill-opacity="1" stroke-width="0.79701" stroke-linecap="butt" stroke-linejoin="miter" stroke="rgb(0%, 0%, 0%)" stroke-opacity="1" stroke-miterlimit="10" d="M 5.442336 0.000398866 L 1.288238 1.570421 L 2.662496 0.000398866 L 1.288238 -1.569623 Z M 5.442336 0.000398866 " transform="matrix(0, 0.997697, 0.997697, 0, 191.347258, 102.195198)"/>
<path fill="none" stroke-width="0.79701" stroke-linecap="butt" stroke-linejoin="miter" stroke="rgb(0%, 0%, 0%)" stroke-opacity="1" stroke-miterlimit="10" d="M 0.000398866 -131.332679 L 0.000398866 -149.90279 " transform="matrix(0.997697, 0, 0, -0.997697, 191.347258, 14.75494)"/>
<path fill-rule="nonzero" fill="rgb(0%, 0%, 0%)" fill-opacity="1" stroke-width="0.79701" stroke-linecap="butt" stroke-linejoin="miter" stroke="rgb(0%, 0%, 0%)" stroke-opacity="1" stroke-miterlimit="10" d="M 5.442023 0.000398866 L 1.287925 1.570421 L 2.666099 0.000398866 L 1.287925 -1.569623 Z M 5.442023 0.000398866 " transform="matrix(0, 0.997697, 0.997697, 0, 191.347258, 161.85176)"/>
<path fill="none" stroke-width="0.79701" stroke-linecap="butt" stroke-linejoin="miter" stroke="rgb(0%, 0%, 0%)" stroke-opacity="1" stroke-miterlimit="10" d="M -95.962795 -168.38285 L -110.136061 -168.38285 L -110.136061 0.00103662 L -100.073825 0.00103662 " transform="matrix(0.997697, 0, 0, -0.997697, 191.347258, 14.75494)"/>
<path fill-rule="nonzero" fill="rgb(0%, 0%, 0%)" fill-opacity="1" stroke-width="0.79701" stroke-linecap="butt" stroke-linejoin="miter" stroke="rgb(0%, 0%, 0%)" stroke-opacity="1" stroke-miterlimit="10" d="M 5.439638 0.00103662 L 1.28554 1.571059 L 2.663714 0.00103662 L 1.28554 -1.568985 Z M 5.439638 0.00103662 " transform="matrix(0.997697, 0, 0, -0.997697, 89.045546, 14.75494)"/>
<g fill="rgb(0%, 0%, 0%)" fill-opacity="1">
<use xlink:href="#glyph-13-0" x="3.765263" y="100.590802"/>
<use xlink:href="#glyph-13-1" x="8.461781" y="100.590802"/>
<use xlink:href="#glyph-13-2" x="11.064995" y="100.590802"/>
<use xlink:href="#glyph-13-3" x="16.038832" y="100.590802"/>
<use xlink:href="#glyph-13-1" x="21.433119" y="100.590802"/>
<use xlink:href="#glyph-13-4" x="24.036332" y="100.590802"/>
<use xlink:href="#glyph-13-5" x="28.321347" y="100.590802"/>
<use xlink:href="#glyph-13-6" x="33.527773" y="100.590802"/>
<use xlink:href="#glyph-13-4" x="36.444088" y="100.590802"/>
</g>
<g fill="rgb(0%, 0%, 0%)" fill-opacity="1">
<use xlink:href="#glyph-13-1" x="42.96554" y="100.590802"/>
<use xlink:href="#glyph-13-6" x="45.568753" y="100.590802"/>
<use xlink:href="#glyph-13-4" x="48.485067" y="100.590802"/>
<use xlink:href="#glyph-13-7" x="52.770082" y="100.590802"/>
<use xlink:href="#glyph-13-8" x="56.303653" y="100.590802"/>
<use xlink:href="#glyph-13-9" x="60.776528" y="100.590802"/>
<use xlink:href="#glyph-13-1" x="64.748441" y="100.590802"/>
<use xlink:href="#glyph-13-10" x="67.351654" y="100.590802"/>
<use xlink:href="#glyph-13-5" x="72.236034" y="100.590802"/>
</g>
</svg>
